# Aspose.3D Wavefront OBJ Exporter
# Copyright 2004-2025 Aspose Pty Ltd.
# File created: 06/14/2026 19:38:41

g Cylinder001

#
# object Cylinder001
#

v 20.32 0 0
v 19.094555 4.2555555E-16 -6.9498496
v 15.566023 7.997828E-16 -13.061444
v 10.16 1.0775445E-15 -17.597637
v 3.5285294 1.2253384E-15 -20.011293
v -3.5285335 1.2253383E-15 -20.011293
v -10.160001 1.0775444E-15 -17.597635
v -15.566023 7.997828E-16 -13.061444
v -19.094555 4.2555563E-16 -6.9498506
v -20.32 1.8787519E-22 -3.0682347E-06
v -19.094555 -4.2555528E-16 6.9498453
v -15.566027 -7.9978254E-16 13.0614395
v -10.1600065 -1.0775442E-15 17.597631
v -3.5285394 -1.2253382E-15 20.011292
v 3.528521 -1.2253384E-15 20.011295
v 10.159989 -1.0775448E-15 17.597641
v 15.566014 -7.9978344E-16 13.061455
v 19.09455 -4.2555637E-16 6.949863
v 20.32 20.32 1.2442411E-15
v 19.094555 20.32 -6.9498496
v 15.566023 20.32 -13.061444
v 10.16 20.32 -17.597637
v 3.5285294 20.32 -20.011293
v -3.5285335 20.32 -20.011293
v -10.160001 20.32 -17.597635
v -15.566023 20.32 -13.061444
v -19.094555 20.32 -6.9498506
v -20.32 20.32 -3.0682347E-06
v -19.094555 20.32 6.9498453
v -15.566027 20.32 13.0614395
v -10.1600065 20.32 17.597631
v -3.5285394 20.32 20.011292
v 3.528521 20.32 20.011295
v 10.159989 20.32 17.597641
v 15.566014 20.32 13.061455
v 19.09455 20.32 6.949863
v 1.2199117E-06 40.72132 -1.2893193E-07
v -3.0289726 39.174553 -7.161947
v -5.539164 39.174553 -5.4576383
v -7.206067 39.174553 -2.9224534
v -7.775913 39.174553 0.057647888
v -7.1619453 39.174553 3.0289724
v -5.4576373 39.174553 5.5391645
v -2.9224544 39.174553 7.206068
v 0.057648793 39.174553 7.775914
v 3.0289748 39.174553 7.161947
v 5.539168 39.174553 5.4576373
v 7.2060714 39.174553 2.9224503
v 7.775916 39.174553 -0.05765243
v 7.161946 39.174553 -3.0289783
v 5.457635 39.174553 -5.5391693
v 2.9224477 39.174553 -7.206072
v -0.057656363 39.174553 -7.775914
v -5.596812 34.76973 -13.233551
v -10.235043 34.76973 -10.084397
v -13.315078 34.76973 -5.399989
v -14.368013 34.76973 0.10651906
v -13.233551 34.76973 5.5968113
v -10.084399 34.76973 10.235039
v -5.3999925 34.76973 13.315076
v 0.10651906 34.76973 14.368014
v 5.596815 34.76973 13.233551
v 10.235044 34.76973 10.084397
v 13.315082 34.76973 5.399984
v 14.368016 34.76973 -0.10652814
v 13.233548 34.76973 -5.596822
v 10.084393 34.76973 -10.23505
v 5.399978 34.76973 -13.3150835
v -0.10653601 34.76973 -14.368014
v -7.3125877 28.177446 -17.290466
v -13.372726 28.177446 -13.175901
v -17.396986 28.177446 -7.0554247
v -18.772717 28.177446 0.13917392
v -17.290468 28.177446 7.312586
v -13.175906 28.177446 13.372723
v -7.05543 28.177446 17.396986
v 0.13917452 28.177446 18.772717
v 7.31259 28.177446 17.290466
v 13.372729 28.177446 13.1758995
v 17.39699 28.177446 7.055419
v 18.772717 28.177446 -0.13918482
v 17.290462 28.177446 -7.312599
v 13.175892 28.177446 -13.372738
v 7.0554113 28.177446 -17.396994
v -0.13919632 28.177446 -18.772717
v -7.915088 20.40132 -18.715067
v -14.474536 20.40132 -14.261493
v -18.830364 20.40132 -7.636738
v -20.31944 20.40132 0.15064064
v -18.715069 20.40132 7.9150867
v -14.2614975 20.40132 14.474532
v -7.636742 20.40132 18.830364
v 0.15064064 20.40132 20.31944
v 7.9150906 20.40132 18.715067
v 14.474538 20.40132 14.261492
v 18.830368 20.40132 7.636732
v 20.319443 20.40132 -0.15065335
v 18.715063 20.40132 -7.9151015
v 14.261483 20.40132 -14.474547
v 7.6367207 20.40132 -18.830374
v -0.15066487 20.40132 -20.31944
v -7.3125877 12.625191 -17.290466
v -13.372726 12.625191 -13.175901
v -17.396986 12.625191 -7.0554247
v -18.772717 12.625191 0.13917392
v -17.290468 12.625191 7.312586
v -13.175906 12.625191 13.372723
v -7.05543 12.625191 17.396986
v 0.13917452 12.625191 18.772717
v 7.31259 12.625191 17.290466
v 13.372729 12.625191 13.1758995
v 17.39699 12.625191 7.055419
v 18.772717 12.625191 -0.13918482
v 17.290462 12.625191 -7.312599
v 13.175892 12.625191 -13.372738
v 7.0554113 12.625191 -17.396994
v -0.13919632 12.625191 -18.772717
v -5.596812 6.032911 -13.233551
v -10.235043 6.032911 -10.084397
v -13.315078 6.0329103 -5.399989
v -14.368013 6.0329103 0.10651906
v -13.233551 6.0329103 5.5968113
v -10.084399 6.0329103 10.235039
v -5.3999925 6.0329103 13.315076
v 0.10651906 6.0329103 14.368014
v 5.596815 6.0329103 13.233551
v 10.235044 6.0329103 10.084397
v 13.315082 6.0329103 5.399984
v 14.368016 6.0329103 -0.10652814
v 13.233548 6.0329103 -5.596822
v 10.084393 6.032911 -10.23505
v 5.399978 6.032911 -13.3150835
v -0.10653601 6.032911 -14.368014
v -3.028973 1.6280886 -7.1619473
v -5.5391645 1.6280886 -5.4576383
v -7.206068 1.6280886 -2.9224539
v -7.775913 1.6280886 0.057647888
v -7.161946 1.6280886 3.0289726
v -5.4576383 1.6280886 5.5391645
v -2.9224546 1.6280886 7.2060685
v 0.05764849 1.6280886 7.775914
v 3.028975 1.6280886 7.1619473
v 5.539168 1.6280886 5.4576373
v 7.206072 1.6280886 2.922451
v 7.7759166 1.6280886 -0.05765273
v 7.161947 1.6280886 -3.0289788
v 5.4576354 1.6280886 -5.5391693
v 2.922448 1.6280886 -7.2060723
v -0.05765606 1.6280886 -7.775915
v 1.2199117E-06 0.08132014 -1.2893193E-07
v 3.07607 30.987665 -0.70168424
v 2.9668262 30.99339 -1.3220872
v 2.6522708 31.009876 -1.8676604
v 2.1703448 31.035131 -2.2725997
v 1.5791744 31.066114 -2.4880633
v 0.95006406 31.099083 -2.488063
v 0.35889396 31.130068 -2.2725995
v -0.12303225 31.155323 -1.8676604
v -0.43758744 31.171808 -1.3220873
v -0.5468313 31.177532 -0.70168453
v -0.4375876 31.171808 -0.08128175
v -0.123032555 31.155323 0.4642914
v 0.3588935 31.130068 0.8692306
v 0.9500635 31.099083 1.0846944
v 1.5791736 31.066114 1.0846947
v 2.1703439 31.035131 0.8692314
v 2.6522703 31.009876 0.46429268
v 2.966826 30.99339 -0.081280164
v 11.05207 183.1788 -0.70168424
v 10.942825 183.18451 -1.3220872
v 10.628271 183.201 -1.8676604
v 10.146344 183.22626 -2.2725997
v 9.555174 183.25726 -2.4880633
v 8.926064 183.2902 -2.488063
v 8.334893 183.32121 -2.2725995
v 7.8529673 183.34647 -1.8676604
v 7.5384116 183.36296 -1.3220873
v 7.429168 183.36867 -0.70168453
v 7.5384116 183.36296 -0.08128175
v 7.852967 183.34647 0.4642914
v 8.334893 183.32121 0.8692306
v 8.926064 183.2902 1.0846944
v 9.555173 183.25726 1.0846947
v 10.146343 183.22626 0.8692314
v 10.628269 183.201 0.46429268
v 10.942825 183.18451 -0.081280164
v -9.128826 127.257195 2.6300478
v 21.736542 125.63962 2.6300478
v -9.128826 127.257195 1.3600478
v 21.736542 125.63962 1.3600478
v -7.511241 158.12257 2.6300468
v 23.354126 156.50497 2.6300468
v -7.511241 158.12257 1.3600469
v 23.354126 156.50497 1.3600469
v -7.390309 160.75908 2.6300478
v 23.475058 159.1415 2.6300478
v -7.390309 160.75908 1.3600478
v 23.475058 159.1415 1.3600478
v -5.7727237 191.62445 2.6300468
v 25.092642 190.00685 2.6300468
v -5.7727237 191.62445 1.3600469
v 25.092642 190.00685 1.3600469
# 202 vertices

vn 0 -1 -4.440892E-16
vn 0 -1 -4.440892E-16
vn 0 -1 -4.440892E-16
vn 0 -1 -4.440892E-16
vn 0 -1 -4.440892E-16
vn 0 -1 -4.440892E-16
vn 0 -1 -4.440892E-16
vn 0 -1 -4.440892E-16
vn 0 -1 -4.440892E-16
vn 0 -1 -4.440892E-16
vn 0 -1 -4.440892E-16
vn 0 -1 -4.440892E-16
vn 0 -1 -4.440892E-16
vn 0 -1 -4.440892E-16
vn 0 -1 -4.440892E-16
vn 0 -1 -4.440892E-16
vn 0 -1 -4.440892E-16
vn 0 -1 -4.440892E-16
vn 0 -1 -4.440892E-16
vn 0 -1 -4.440892E-16
vn 0 -1 -4.440892E-16
vn 0 -1 -4.440892E-16
vn 0 -1 -4.440892E-16
vn 0 -1 -4.440892E-16
vn 0 -1 -4.440892E-16
vn 0 -1 -4.440892E-16
vn 0 -1 -4.440892E-16
vn 0 -1 -4.440892E-16
vn 0 -1 -4.440892E-16
vn 0 -1 -4.440892E-16
vn 0 -1 -4.440892E-16
vn 0 -1 -4.440892E-16
vn 0 -1 -4.440892E-16
vn 0 -1 -4.440892E-16
vn 0 -1 -4.440892E-16
vn 0 -1 -4.440892E-16
vn 0 -1 -4.440892E-16
vn 0 -1 -4.440892E-16
vn 0 -1 -4.440892E-16
vn 0 -1 -4.440892E-16
vn 0 -1 -4.440892E-16
vn 0 -1 -4.440892E-16
vn 0 -1 -4.440892E-16
vn 0 -1 -4.440892E-16
vn 0 -1 -4.440892E-16
vn 0 -1 -4.440892E-16
vn 0 -1 -4.440892E-16
vn 0 -1 -4.440892E-16
vn 1 -1.0587912E-22 1.9265434E-07
vn 0.9396926 1.6653345E-16 -0.34202012
vn 0.9396926 1.6653345E-16 -0.34202018
vn 0.9396926 1.6653345E-16 -0.34202018
vn 1 -7.940934E-23 1.6375617E-07
vn 1 -1.0587912E-22 1.9265434E-07
vn 0.9396926 1.6653345E-16 -0.34202012
vn 0.76604444 3.330669E-16 -0.6427876
vn 0.76604444 3.330669E-16 -0.6427876
vn 0.76604444 3.330669E-16 -0.6427876
vn 0.9396926 1.6653345E-16 -0.34202018
vn 0.9396926 1.6653345E-16 -0.34202012
vn 0.76604444 3.330669E-16 -0.6427876
vn 0.49999994 4.440892E-16 -0.8660254
vn 0.5 4.440892E-16 -0.8660254
vn 0.5 4.440892E-16 -0.8660254
vn 0.76604444 3.330669E-16 -0.6427876
vn 0.76604444 3.330669E-16 -0.6427876
vn 0.49999994 4.440892E-16 -0.8660254
vn 0.17364807 4.440892E-16 -0.98480785
vn 0.17364804 4.440892E-16 -0.98480785
vn 0.17364804 4.440892E-16 -0.98480785
vn 0.5 4.440892E-16 -0.8660254
vn 0.49999994 4.440892E-16 -0.8660254
vn 0.17364807 4.440892E-16 -0.98480785
vn -0.17364825 4.440892E-16 -0.9848077
vn -0.17364833 4.440892E-16 -0.9848077
vn -0.17364833 4.440892E-16 -0.9848077
vn 0.17364804 4.440892E-16 -0.98480785
vn 0.17364807 4.440892E-16 -0.98480785
vn -0.17364825 4.440892E-16 -0.9848077
vn -0.50000006 4.440892E-16 -0.8660253
vn -0.5 4.440892E-16 -0.8660254
vn -0.5 4.440892E-16 -0.8660254
vn -0.17364833 4.440892E-16 -0.9848077
vn -0.17364825 4.440892E-16 -0.9848077
vn -0.50000006 4.440892E-16 -0.8660253
vn -0.76604444 3.330669E-16 -0.64278764
vn -0.76604444 3.330669E-16 -0.64278764
vn -0.76604444 3.330669E-16 -0.64278764
vn -0.5 4.440892E-16 -0.8660254
vn -0.50000006 4.440892E-16 -0.8660253
vn -0.76604444 3.330669E-16 -0.64278764
vn -0.93969256 1.6653345E-16 -0.3420202
vn -0.93969256 1.6653345E-16 -0.34202018
vn -0.93969256 1.6653345E-16 -0.34202018
vn -0.76604444 3.330669E-16 -0.64278764
vn -0.76604444 3.330669E-16 -0.64278764
vn -0.93969256 1.6653345E-16 -0.3420202
vn -1 5.293956E-23 -1.1318442E-07
vn -1 3.970467E-23 -8.669444E-08
vn -1 3.970467E-23 -8.669444E-08
vn -0.93969256 1.6653345E-16 -0.34202018
vn -0.93969256 1.6653345E-16 -0.3420202
vn -1 5.293956E-23 -1.1318442E-07
vn -0.9396926 -1.6653345E-16 0.34201995
vn -0.93969274 -1.6653345E-16 0.34202
vn -0.93969274 -1.6653345E-16 0.34202
vn -1 3.970467E-23 -8.669444E-08
vn -1 5.293956E-23 -1.1318442E-07
vn -0.9396926 -1.6653345E-16 0.34201995
vn -0.7660446 -3.330669E-16 0.64278734
vn -0.7660446 -3.330669E-16 0.64278734
vn -0.7660446 -3.330669E-16 0.64278734
vn -0.93969274 -1.6653345E-16 0.34202
vn -0.9396926 -1.6653345E-16 0.34201995
vn -0.7660446 -3.330669E-16 0.64278734
vn -0.50000024 -4.440892E-16 0.86602527
vn -0.5000003 -4.440892E-16 0.86602527
vn -0.5000003 -4.440892E-16 0.86602527
vn -0.7660446 -3.330669E-16 0.64278734
vn -0.7660446 -3.330669E-16 0.64278734
vn -0.50000024 -4.440892E-16 0.86602527
vn -0.17364864 -4.440892E-16 0.98480767
vn -0.17364864 -4.440892E-16 0.98480767
vn -0.17364864 -4.440892E-16 0.98480767
vn -0.5000003 -4.440892E-16 0.86602527
vn -0.50000024 -4.440892E-16 0.86602527
vn -0.17364864 -4.440892E-16 0.98480767
vn 0.17364766 -4.440892E-16 0.98480785
vn 0.17364767 -4.440892E-16 0.98480785
vn 0.17364767 -4.440892E-16 0.98480785
vn -0.17364864 -4.440892E-16 0.98480767
vn -0.17364864 -4.440892E-16 0.98480767
vn 0.17364766 -4.440892E-16 0.98480785
vn 0.49999952 -4.440892E-16 0.8660256
vn 0.49999952 -4.440892E-16 0.8660256
vn 0.49999952 -4.440892E-16 0.8660256
vn 0.17364767 -4.440892E-16 0.98480785
vn 0.17364766 -4.440892E-16 0.98480785
vn 0.49999952 -4.440892E-16 0.8660256
vn 0.766044 -3.330669E-16 0.6427881
vn 0.766044 -3.330669E-16 0.6427881
vn 0.766044 -3.330669E-16 0.6427881
vn 0.49999952 -4.440892E-16 0.8660256
vn 0.49999952 -4.440892E-16 0.8660256
vn 0.766044 -3.330669E-16 0.6427881
vn 0.9396924 -1.6653345E-16 0.3420206
vn 0.9396924 -1.6653345E-16 0.3420206
vn 0.9396924 -1.6653345E-16 0.3420206
vn 0.766044 -3.330669E-16 0.6427881
vn 0.766044 -3.330669E-16 0.6427881
vn 0.9396924 -1.6653345E-16 0.3420206
vn 1 -1.0587912E-22 1.9265434E-07
vn 1 -7.940934E-23 1.6375617E-07
vn 1 -7.940934E-23 1.6375617E-07
vn 0.9396924 -1.6653345E-16 0.3420206
vn 0.9396924 -1.6653345E-16 0.3420206
vn 0 1 4.440892E-16
vn 0 1 4.440892E-16
vn 0 1 4.440892E-16
vn 0 1 4.440892E-16
vn 0 1 4.440892E-16
vn 0 1 4.440892E-16
vn 0 1 4.440892E-16
vn 0 1 4.440892E-16
vn 0 1 4.440892E-16
vn 0 1 4.440892E-16
vn 0 1 4.440892E-16
vn 0 1 4.440892E-16
vn 0 1 4.440892E-16
vn 0 1 4.440892E-16
vn 0 1 4.440892E-16
vn 0 1 4.440892E-16
vn 0 1 4.440892E-16
vn 0 1 4.440892E-16
vn 0 1 4.440892E-16
vn 0 1 4.440892E-16
vn 0 1 4.440892E-16
vn 0 1 4.440892E-16
vn 0 1 4.440892E-16
vn 0 1 4.440892E-16
vn 0 1 4.440892E-16
vn 0 1 4.440892E-16
vn 0 1 4.440892E-16
vn 0 1 4.440892E-16
vn 0 1 4.440892E-16
vn 0 1 4.440892E-16
vn 0 1 4.440892E-16
vn 0 1 4.440892E-16
vn 0 1 4.440892E-16
vn 0 1 4.440892E-16
vn 0 1 4.440892E-16
vn 0 1 4.440892E-16
vn 0 1 4.440892E-16
vn 0 1 4.440892E-16
vn 0 1 4.440892E-16
vn 0 1 4.440892E-16
vn 0 1 4.440892E-16
vn 0 1 4.440892E-16
vn 0 1 4.440892E-16
vn 0 1 4.440892E-16
vn 0 1 4.440892E-16
vn 0 1 4.440892E-16
vn 0 1 4.440892E-16
vn 0 1 4.440892E-16
vn -2.8689305E-08 1 4.440892E-16
vn -0.1570137 0.9151591 -0.3712553
vn -0.28713495 0.9151591 -0.2829088
vn -2.8689305E-08 1 4.440892E-16
vn -0.28713495 0.9151591 -0.2829088
vn -0.37354258 0.9151591 -0.15149184
vn -2.8689305E-08 1 4.440892E-16
vn -0.37354258 0.9151591 -0.15149184
vn -0.4030818 0.9151591 0.0029882705
vn -2.8689305E-08 1 4.440892E-16
vn -0.4030818 0.9151591 0.0029882705
vn -0.37125537 0.9151591 0.15701355
vn -2.8689305E-08 1 4.440892E-16
vn -0.37125537 0.9151591 0.15701355
vn -0.28290886 0.915159 0.28713483
vn -2.8689305E-08 1 4.440892E-16
vn -0.28290886 0.915159 0.28713483
vn -0.15149193 0.9151591 0.3735426
vn -2.8689305E-08 1 4.440892E-16
vn -0.15149193 0.9151591 0.3735426
vn 0.0029882984 0.9151591 0.4030818
vn -2.8689305E-08 1 4.440892E-16
vn 0.0029882984 0.9151591 0.4030818
vn 0.15701358 0.9151591 0.3712555
vn -2.8689305E-08 1 4.440892E-16
vn 0.15701358 0.9151591 0.3712555
vn 0.287135 0.9151591 0.28290877
vn -2.8689305E-08 1 4.440892E-16
vn 0.287135 0.9151591 0.28290877
vn 0.3735427 0.9151591 0.15149172
vn -2.8689305E-08 1 4.440892E-16
vn 0.3735427 0.9151591 0.15149172
vn 0.4030819 0.9151591 -0.0029885236
vn -2.8689305E-08 1 4.440892E-16
vn 0.4030819 0.9151591 -0.0029885236
vn 0.37125537 0.9151591 -0.15701388
vn -2.8689305E-08 1 4.440892E-16
vn 0.37125537 0.9151591 -0.15701388
vn 0.28290856 0.9151591 -0.28713515
vn -2.8689305E-08 1 4.440892E-16
vn 0.28290856 0.9151591 -0.28713515
vn 0.15149148 0.9151591 -0.37354273
vn -2.8689305E-08 1 4.440892E-16
vn 0.15149148 0.9151591 -0.37354273
vn -0.002988669 0.9151591 -0.40308177
vn -2.8689305E-08 1 4.440892E-16
vn -0.002988669 0.9151591 -0.40308177
vn -0.1570137 0.9151591 -0.3712553
vn -0.51206404 0.69515663 -0.50452715
vn -0.28713495 0.9151591 -0.2829088
vn -0.1570137 0.9151591 -0.3712553
vn -0.1570137 0.9151591 -0.3712553
vn -0.28001142 0.6951567 -0.6620807
vn -0.51206404 0.69515663 -0.50452715
vn -0.6661597 0.69515663 -0.27016398
vn -0.37354258 0.9151591 -0.15149184
vn -0.28713495 0.9151591 -0.2829088
vn -0.28713495 0.9151591 -0.2829088
vn -0.51206404 0.69515663 -0.50452715
vn -0.6661597 0.69515663 -0.27016398
vn -0.7188385 0.69515675 0.0053292024
vn -0.4030818 0.9151591 0.0029882705
vn -0.37354258 0.9151591 -0.15149184
vn -0.37354258 0.9151591 -0.15149184
vn -0.6661597 0.69515663 -0.27016398
vn -0.7188385 0.69515675 0.0053292024
vn -0.66208076 0.69515675 0.28001112
vn -0.37125537 0.9151591 0.15701355
vn -0.4030818 0.9151591 0.0029882705
vn -0.4030818 0.9151591 0.0029882705
vn -0.7188385 0.69515675 0.0053292024
vn -0.66208076 0.69515675 0.28001112
vn -0.5045273 0.69515675 0.5120639
vn -0.28290886 0.915159 0.28713483
vn -0.37125537 0.9151591 0.15701355
vn -0.37125537 0.9151591 0.15701355
vn -0.66208076 0.69515675 0.28001112
vn -0.5045273 0.69515675 0.5120639
vn -0.27016422 0.6951566 0.6661596
vn -0.15149193 0.9151591 0.3735426
vn -0.28290886 0.915159 0.28713483
vn -0.28290886 0.915159 0.28713483
vn -0.5045273 0.69515675 0.5120639
vn -0.27016422 0.6951566 0.6661596
vn 0.0053291004 0.6951567 0.7188385
vn 0.0029882984 0.9151591 0.4030818
vn -0.15149193 0.9151591 0.3735426
vn -0.15149193 0.9151591 0.3735426
vn -0.27016422 0.6951566 0.6661596
vn 0.0053291004 0.6951567 0.7188385
vn 0.28001124 0.6951566 0.66208076
vn 0.15701358 0.9151591 0.3712555
vn 0.0029882984 0.9151591 0.4030818
vn 0.0029882984 0.9151591 0.4030818
vn 0.0053291004 0.6951567 0.7188385
vn 0.28001124 0.6951566 0.66208076
vn 0.51206416 0.6951566 0.50452715
vn 0.287135 0.9151591 0.28290877
vn 0.15701358 0.9151591 0.3712555
vn 0.15701358 0.9151591 0.3712555
vn 0.28001124 0.6951566 0.66208076
vn 0.51206416 0.6951566 0.50452715
vn 0.66615975 0.6951566 0.27016383
vn 0.3735427 0.9151591 0.15149172
vn 0.287135 0.9151591 0.28290877
vn 0.287135 0.9151591 0.28290877
vn 0.51206416 0.6951566 0.50452715
vn 0.66615975 0.6951566 0.27016383
vn 0.7188386 0.6951566 -0.0053296653
vn 0.4030819 0.9151591 -0.0029885236
vn 0.3735427 0.9151591 0.15149172
vn 0.3735427 0.9151591 0.15149172
vn 0.66615975 0.6951566 0.27016383
vn 0.7188386 0.6951566 -0.0053296653
vn 0.6620807 0.6951566 -0.2800117
vn 0.37125537 0.9151591 -0.15701388
vn 0.4030819 0.9151591 -0.0029885236
vn 0.4030819 0.9151591 -0.0029885236
vn 0.7188386 0.6951566 -0.0053296653
vn 0.6620807 0.6951566 -0.2800117
vn 0.5045269 0.6951566 -0.5120643
vn 0.28290856 0.9151591 -0.28713515
vn 0.37125537 0.9151591 -0.15701388
vn 0.37125537 0.9151591 -0.15701388
vn 0.6620807 0.6951566 -0.2800117
vn 0.5045269 0.6951566 -0.5120643
vn 0.2701634 0.6951566 -0.6661599
vn 0.15149148 0.9151591 -0.37354273
vn 0.28290856 0.9151591 -0.28713515
vn 0.28290856 0.9151591 -0.28713515
vn 0.5045269 0.6951566 -0.5120643
vn 0.2701634 0.6951566 -0.6661599
vn -0.005329846 0.6951567 -0.7188385
vn -0.002988669 0.9151591 -0.40308177
vn 0.15149148 0.9151591 -0.37354273
vn 0.15149148 0.9151591 -0.37354273
vn 0.2701634 0.6951566 -0.6661599
vn -0.005329846 0.6951567 -0.7188385
vn -0.28001142 0.6951567 -0.6620807
vn -0.1570137 0.9151591 -0.3712553
vn -0.002988669 0.9151591 -0.40308177
vn -0.002988669 0.9151591 -0.40308177
vn -0.005329846 0.6951567 -0.7188385
vn -0.28001142 0.6951567 -0.6620807
vn -0.6605294 0.37436703 -0.6508074
vn -0.51206404 0.69515663 -0.50452715
vn -0.28001142 0.6951567 -0.6620807
vn -0.28001142 0.6951567 -0.6620807
vn -0.3611966 0.37436703 -0.85404116
vn -0.6605294 0.37436703 -0.6508074
vn -0.85930276 0.3743671 -0.34849408
vn -0.6661597 0.69515663 -0.27016398
vn -0.51206404 0.69515663 -0.50452715
vn -0.51206404 0.69515663 -0.50452715
vn -0.6605294 0.37436703 -0.6508074
vn -0.85930276 0.3743671 -0.34849408
vn -0.9272551 0.37436706 0.0068742745
vn -0.7188385 0.69515675 0.0053292024
vn -0.6661597 0.69515663 -0.27016398
vn -0.6661597 0.69515663 -0.27016398
vn -0.85930276 0.3743671 -0.34849408
vn -0.9272551 0.37436706 0.0068742745
vn -0.8540414 0.37436703 0.36119616
vn -0.66208076 0.69515675 0.28001112
vn -0.7188385 0.69515675 0.0053292024
vn -0.7188385 0.69515675 0.0053292024
vn -0.9272551 0.37436706 0.0068742745
vn -0.8540414 0.37436703 0.36119616
vn -0.6508076 0.37436706 0.6605292
vn -0.5045273 0.69515675 0.5120639
vn -0.66208076 0.69515675 0.28001112
vn -0.66208076 0.69515675 0.28001112
vn -0.8540414 0.37436703 0.36119616
vn -0.6508076 0.37436706 0.6605292
vn -0.34849423 0.3743671 0.8593026
vn -0.27016422 0.6951566 0.6661596
vn -0.5045273 0.69515675 0.5120639
vn -0.5045273 0.69515675 0.5120639
vn -0.6508076 0.37436706 0.6605292
vn -0.34849423 0.3743671 0.8593026
vn 0.0068743094 0.37436697 0.9272551
vn 0.0053291004 0.6951567 0.7188385
vn -0.27016422 0.6951566 0.6661596
vn -0.27016422 0.6951566 0.6661596
vn -0.34849423 0.3743671 0.8593026
vn 0.0068743094 0.37436697 0.9272551
vn 0.36119634 0.37436697 0.85404134
vn 0.28001124 0.6951566 0.66208076
vn 0.0053291004 0.6951567 0.7188385
vn 0.0053291004 0.6951567 0.7188385
vn 0.0068743094 0.37436697 0.9272551
vn 0.36119634 0.37436697 0.85404134
vn 0.6605295 0.374367 0.6508073
vn 0.51206416 0.6951566 0.50452715
vn 0.28001124 0.6951566 0.66208076
vn 0.28001124 0.6951566 0.66208076
vn 0.36119634 0.37436697 0.85404134
vn 0.6605295 0.374367 0.6508073
vn 0.8593028 0.37436706 0.34849375
vn 0.66615975 0.6951566 0.27016383
vn 0.51206416 0.6951566 0.50452715
vn 0.51206416 0.6951566 0.50452715
vn 0.6605295 0.374367 0.6508073
vn 0.8593028 0.37436706 0.34849375
vn 0.92725515 0.37436706 -0.006874905
vn 0.7188386 0.6951566 -0.0053296653
vn 0.66615975 0.6951566 0.27016383
vn 0.66615975 0.6951566 0.27016383
vn 0.8593028 0.37436706 0.34849375
vn 0.92725515 0.37436706 -0.006874905
vn 0.85404116 0.37436703 -0.36119688
vn 0.6620807 0.6951566 -0.2800117
vn 0.7188386 0.6951566 -0.0053296653
vn 0.7188386 0.6951566 -0.0053296653
vn 0.92725515 0.37436706 -0.006874905
vn 0.85404116 0.37436703 -0.36119688
vn 0.65080696 0.37436706 -0.6605298
vn 0.5045269 0.6951566 -0.5120643
vn 0.6620807 0.6951566 -0.2800117
vn 0.6620807 0.6951566 -0.2800117
vn 0.85404116 0.37436703 -0.36119688
vn 0.65080696 0.37436706 -0.6605298
vn 0.34849328 0.37436706 -0.85930306
vn 0.2701634 0.6951566 -0.6661599
vn 0.5045269 0.6951566 -0.5120643
vn 0.5045269 0.6951566 -0.5120643
vn 0.65080696 0.37436706 -0.6605298
vn 0.34849328 0.37436706 -0.85930306
vn -0.0068751713 0.37436706 -0.92725515
vn -0.005329846 0.6951567 -0.7188385
vn 0.2701634 0.6951566 -0.6661599
vn 0.2701634 0.6951566 -0.6661599
vn 0.34849328 0.37436706 -0.85930306
vn -0.0068751713 0.37436706 -0.92725515
vn -0.3611966 0.37436703 -0.85404116
vn -0.28001142 0.6951567 -0.6620807
vn -0.005329846 0.6951567 -0.7188385
vn -0.005329846 0.6951567 -0.7188385
vn -0.0068751713 0.37436706 -0.92725515
vn -0.3611966 0.37436703 -0.85404116
vn -0.7123295 2.0198664E-08 -0.7018452
vn -0.6605294 0.37436703 -0.6508074
vn -0.3611966 0.37436703 -0.85404116
vn -0.3611966 0.37436703 -0.85404116
vn -0.38952243 2.524833E-08 -0.921017
vn -0.7123295 2.0198664E-08 -0.7018452
vn -0.9266912 3.5347668E-08 -0.37582374
vn -0.85930276 0.3743671 -0.34849408
vn -0.6605294 0.37436703 -0.6508074
vn -0.6605294 0.37436703 -0.6508074
vn -0.7123295 2.0198664E-08 -0.7018452
vn -0.9266912 3.5347668E-08 -0.37582374
vn -0.9999725 3.7872503E-08 0.007413411
vn -0.9272551 0.37436706 0.0068742745
vn -0.85930276 0.3743671 -0.34849408
vn -0.85930276 0.3743671 -0.34849408
vn -0.9266912 3.5347668E-08 -0.37582374
vn -0.9999725 3.7872503E-08 0.007413411
vn -0.92101717 2.27235E-08 0.38952193
vn -0.8540414 0.37436703 0.36119616
vn -0.9272551 0.37436706 0.0068742745
vn -0.9272551 0.37436706 0.0068742745
vn -0.9999725 3.7872503E-08 0.007413411
vn -0.92101717 2.27235E-08 0.38952193
vn -0.7018454 4.039733E-08 0.7123294
vn -0.6508076 0.37436706 0.6605292
vn -0.8540414 0.37436703 0.36119616
vn -0.8540414 0.37436703 0.36119616
vn -0.92101717 2.27235E-08 0.38952193
vn -0.7018454 4.039733E-08 0.7123294
vn -0.37582397 2.7773169E-08 0.9266911
vn -0.34849423 0.3743671 0.8593026
vn -0.6508076 0.37436706 0.6605292
vn -0.6508076 0.37436706 0.6605292
vn -0.7018454 4.039733E-08 0.7123294
vn -0.37582397 2.7773169E-08 0.9266911
vn 0.0074134734 4.797183E-08 0.9999725
vn 0.0068743094 0.37436697 0.9272551
vn -0.34849423 0.3743671 0.8593026
vn -0.34849423 0.3743671 0.8593026
vn -0.37582397 2.7773169E-08 0.9266911
vn 0.0074134734 4.797183E-08 0.9999725
vn 0.3895222 2.0198664E-08 0.92101705
vn 0.36119634 0.37436697 0.85404134
vn 0.0068743094 0.37436697 0.9272551
vn 0.0068743094 0.37436697 0.9272551
vn 0.0074134734 4.797183E-08 0.9999725
vn 0.3895222 2.0198664E-08 0.92101705
vn 0.7123296 -1.2624165E-08 0.701845
vn 0.6605295 0.374367 0.6508073
vn 0.36119634 0.37436697 0.85404134
vn 0.36119634 0.37436697 0.85404134
vn 0.3895222 2.0198664E-08 0.92101705
vn 0.7123296 -1.2624165E-08 0.701845
vn 0.9266913 -7.5745E-09 0.37582353
vn 0.8593028 0.37436706 0.34849375
vn 0.6605295 0.374367 0.6508073
vn 0.6605295 0.374367 0.6508073
vn 0.7123296 -1.2624165E-08 0.701845
vn 0.9266913 -7.5745E-09 0.37582353
vn 0.9999725 1.2624168E-08 -0.0074140327
vn 0.92725515 0.37436706 -0.006874905
vn 0.8593028 0.37436706 0.34849375
vn 0.8593028 0.37436706 0.34849375
vn 0.9266913 -7.5745E-09 0.37582353
vn 0.9999725 1.2624168E-08 -0.0074140327
vn 0.9210168 4.5447E-08 -0.38952276
vn 0.85404116 0.37436703 -0.36119688
vn 0.92725515 0.37436706 -0.006874905
vn 0.92725515 0.37436706 -0.006874905
vn 0.9999725 1.2624168E-08 -0.0074140327
vn 0.9210168 4.5447E-08 -0.38952276
vn 0.70184463 4.039733E-08 -0.7123299
vn 0.65080696 0.37436706 -0.6605298
vn 0.85404116 0.37436703 -0.36119688
vn 0.85404116 0.37436703 -0.36119688
vn 0.9210168 4.5447E-08 -0.38952276
vn 0.70184463 4.039733E-08 -0.7123299
vn 0.37582275 4.039733E-08 -0.92669153
vn 0.34849328 0.37436706 -0.85930306
vn 0.65080696 0.37436706 -0.6605298
vn 0.65080696 0.37436706 -0.6605298
vn 0.70184463 4.039733E-08 -0.7123299
vn 0.37582275 4.039733E-08 -0.92669153
vn -0.007414399 5.049666E-08 -0.9999725
vn -0.0068751713 0.37436706 -0.92725515
vn 0.34849328 0.37436706 -0.85930306
vn 0.34849328 0.37436706 -0.85930306
vn 0.37582275 4.039733E-08 -0.92669153
vn -0.007414399 5.049666E-08 -0.9999725
vn -0.38952243 2.524833E-08 -0.921017
vn -0.3611966 0.37436703 -0.85404116
vn -0.0068751713 0.37436706 -0.92725515
vn -0.0068751713 0.37436706 -0.92725515
vn -0.007414399 5.049666E-08 -0.9999725
vn -0.38952243 2.524833E-08 -0.921017
vn -0.6605294 -0.37436703 -0.65080744
vn -0.7123295 2.0198664E-08 -0.7018452
vn -0.38952243 2.524833E-08 -0.921017
vn -0.38952243 2.524833E-08 -0.921017
vn -0.3611966 -0.37436706 -0.85404116
vn -0.6605294 -0.37436703 -0.65080744
vn -0.85930276 -0.3743671 -0.3484941
vn -0.9266912 3.5347668E-08 -0.37582374
vn -0.7123295 2.0198664E-08 -0.7018452
vn -0.7123295 2.0198664E-08 -0.7018452
vn -0.6605294 -0.37436703 -0.65080744
vn -0.85930276 -0.3743671 -0.3484941
vn -0.9272551 -0.37436706 0.006874299
vn -0.9999725 3.7872503E-08 0.007413411
vn -0.9266912 3.5347668E-08 -0.37582374
vn -0.9266912 3.5347668E-08 -0.37582374
vn -0.85930276 -0.3743671 -0.3484941
vn -0.9272551 -0.37436706 0.006874299
vn -0.8540414 -0.37436715 0.36119616
vn -0.92101717 2.27235E-08 0.38952193
vn -0.9999725 3.7872503E-08 0.007413411
vn -0.9999725 3.7872503E-08 0.007413411
vn -0.9272551 -0.37436706 0.006874299
vn -0.8540414 -0.37436715 0.36119616
vn -0.65080756 -0.3743671 0.6605292
vn -0.7018454 4.039733E-08 0.7123294
vn -0.92101717 2.27235E-08 0.38952193
vn -0.92101717 2.27235E-08 0.38952193
vn -0.8540414 -0.37436715 0.36119616
vn -0.65080756 -0.3743671 0.6605292
vn -0.34849423 -0.3743671 0.85930276
vn -0.37582397 2.7773169E-08 0.9266911
vn -0.7018454 4.039733E-08 0.7123294
vn -0.7018454 4.039733E-08 0.7123294
vn -0.65080756 -0.3743671 0.6605292
vn -0.34849423 -0.3743671 0.85930276
vn 0.0068743043 -0.37436706 0.9272551
vn 0.0074134734 4.797183E-08 0.9999725
vn -0.37582397 2.7773169E-08 0.9266911
vn -0.37582397 2.7773169E-08 0.9266911
vn -0.34849423 -0.3743671 0.85930276
vn 0.0068743043 -0.37436706 0.9272551
vn 0.3611964 -0.37436694 0.8540413
vn 0.3895222 2.0198664E-08 0.92101705
vn 0.0074134734 4.797183E-08 0.9999725
vn 0.0074134734 4.797183E-08 0.9999725
vn 0.0068743043 -0.37436706 0.9272551
vn 0.3611964 -0.37436694 0.8540413
vn 0.6605295 -0.37436697 0.6508073
vn 0.7123296 -1.2624165E-08 0.701845
vn 0.3895222 2.0198664E-08 0.92101705
vn 0.3895222 2.0198664E-08 0.92101705
vn 0.3611964 -0.37436694 0.8540413
vn 0.6605295 -0.37436697 0.6508073
vn 0.8593029 -0.37436703 0.34849375
vn 0.9266913 -7.5745E-09 0.37582353
vn 0.7123296 -1.2624165E-08 0.701845
vn 0.7123296 -1.2624165E-08 0.701845
vn 0.6605295 -0.37436697 0.6508073
vn 0.8593029 -0.37436703 0.34849375
vn 0.9272551 -0.37436706 -0.0068748784
vn 0.9999725 1.2624168E-08 -0.0074140327
vn 0.9266913 -7.5745E-09 0.37582353
vn 0.9266913 -7.5745E-09 0.37582353
vn 0.8593029 -0.37436703 0.34849375
vn 0.9272551 -0.37436706 -0.0068748784
vn 0.8540411 -0.37436706 -0.36119685
vn 0.9210168 4.5447E-08 -0.38952276
vn 0.9999725 1.2624168E-08 -0.0074140327
vn 0.9999725 1.2624168E-08 -0.0074140327
vn 0.9272551 -0.37436706 -0.0068748784
vn 0.8540411 -0.37436706 -0.36119685
vn 0.65080696 -0.37436706 -0.6605298
vn 0.70184463 4.039733E-08 -0.7123299
vn 0.9210168 4.5447E-08 -0.38952276
vn 0.9210168 4.5447E-08 -0.38952276
vn 0.8540411 -0.37436706 -0.36119685
vn 0.65080696 -0.37436706 -0.6605298
vn 0.34849328 -0.3743671 -0.85930306
vn 0.37582275 4.039733E-08 -0.92669153
vn 0.70184463 4.039733E-08 -0.7123299
vn 0.70184463 4.039733E-08 -0.7123299
vn 0.65080696 -0.37436706 -0.6605298
vn 0.34849328 -0.3743671 -0.85930306
vn -0.006875183 -0.37436706 -0.9272551
vn -0.007414399 5.049666E-08 -0.9999725
vn 0.37582275 4.039733E-08 -0.92669153
vn 0.37582275 4.039733E-08 -0.92669153
vn 0.34849328 -0.3743671 -0.85930306
vn -0.006875183 -0.37436706 -0.9272551
vn -0.3611966 -0.37436706 -0.85404116
vn -0.38952243 2.524833E-08 -0.921017
vn -0.007414399 5.049666E-08 -0.9999725
vn -0.007414399 5.049666E-08 -0.9999725
vn -0.006875183 -0.37436706 -0.9272551
vn -0.3611966 -0.37436706 -0.85404116
vn -0.512064 -0.6951567 -0.50452715
vn -0.6605294 -0.37436703 -0.65080744
vn -0.3611966 -0.37436706 -0.85404116
vn -0.3611966 -0.37436706 -0.85404116
vn -0.28001142 -0.6951567 -0.66208065
vn -0.512064 -0.6951567 -0.50452715
vn -0.6661596 -0.6951567 -0.27016395
vn -0.85930276 -0.3743671 -0.3484941
vn -0.6605294 -0.37436703 -0.65080744
vn -0.6605294 -0.37436703 -0.65080744
vn -0.512064 -0.6951567 -0.50452715
vn -0.6661596 -0.6951567 -0.27016395
vn -0.71883845 -0.69515675 0.005329154
vn -0.9272551 -0.37436706 0.006874299
vn -0.85930276 -0.3743671 -0.3484941
vn -0.85930276 -0.3743671 -0.3484941
vn -0.6661596 -0.6951567 -0.27016395
vn -0.71883845 -0.69515675 0.005329154
vn -0.6620807 -0.6951567 0.28001112
vn -0.8540414 -0.37436715 0.36119616
vn -0.9272551 -0.37436706 0.006874299
vn -0.9272551 -0.37436706 0.006874299
vn -0.71883845 -0.69515675 0.005329154
vn -0.6620807 -0.6951567 0.28001112
vn -0.5045273 -0.6951567 0.5120638
vn -0.65080756 -0.3743671 0.6605292
vn -0.8540414 -0.37436715 0.36119616
vn -0.8540414 -0.37436715 0.36119616
vn -0.6620807 -0.6951567 0.28001112
vn -0.5045273 -0.6951567 0.5120638
vn -0.2701642 -0.69515675 0.66615945
vn -0.34849423 -0.3743671 0.85930276
vn -0.65080756 -0.3743671 0.6605292
vn -0.65080756 -0.3743671 0.6605292
vn -0.5045273 -0.6951567 0.5120638
vn -0.2701642 -0.69515675 0.66615945
vn 0.0053290855 -0.6951567 0.71883845
vn 0.0068743043 -0.37436706 0.9272551
vn -0.34849423 -0.3743671 0.85930276
vn -0.34849423 -0.3743671 0.85930276
vn -0.2701642 -0.69515675 0.66615945
vn 0.0053290855 -0.6951567 0.71883845
vn 0.2800112 -0.69515663 0.66208076
vn 0.3611964 -0.37436694 0.8540413
vn 0.0068743043 -0.37436706 0.9272551
vn 0.0068743043 -0.37436706 0.9272551
vn 0.0053290855 -0.6951567 0.71883845
vn 0.2800112 -0.69515663 0.66208076
vn 0.51206404 -0.6951567 0.5045271
vn 0.6605295 -0.37436697 0.6508073
vn 0.3611964 -0.37436694 0.8540413
vn 0.3611964 -0.37436694 0.8540413
vn 0.2800112 -0.69515663 0.66208076
vn 0.51206404 -0.6951567 0.5045271
vn 0.66615963 -0.6951567 0.27016377
vn 0.8593029 -0.37436703 0.34849375
vn 0.6605295 -0.37436697 0.6508073
vn 0.6605295 -0.37436697 0.6508073
vn 0.51206404 -0.6951567 0.5045271
vn 0.66615963 -0.6951567 0.27016377
vn 0.7188386 -0.69515663 -0.0053296797
vn 0.9272551 -0.37436706 -0.0068748784
vn 0.8593029 -0.37436703 0.34849375
vn 0.8593029 -0.37436703 0.34849375
vn 0.66615963 -0.6951567 0.27016377
vn 0.7188386 -0.69515663 -0.0053296797
vn 0.66208065 -0.69515663 -0.28001168
vn 0.8540411 -0.37436706 -0.36119685
vn 0.9272551 -0.37436706 -0.0068748784
vn 0.9272551 -0.37436706 -0.0068748784
vn 0.7188386 -0.69515663 -0.0053296797
vn 0.66208065 -0.69515663 -0.28001168
vn 0.50452685 -0.69515663 -0.5120643
vn 0.65080696 -0.37436706 -0.6605298
vn 0.8540411 -0.37436706 -0.36119685
vn 0.8540411 -0.37436706 -0.36119685
vn 0.66208065 -0.69515663 -0.28001168
vn 0.50452685 -0.69515663 -0.5120643
vn 0.27016336 -0.6951567 -0.66615987
vn 0.34849328 -0.3743671 -0.85930306
vn 0.65080696 -0.37436706 -0.6605298
vn 0.65080696 -0.37436706 -0.6605298
vn 0.50452685 -0.69515663 -0.5120643
vn 0.27016336 -0.6951567 -0.66615987
vn -0.005329841 -0.6951567 -0.7188385
vn -0.006875183 -0.37436706 -0.9272551
vn 0.34849328 -0.3743671 -0.85930306
vn 0.34849328 -0.3743671 -0.85930306
vn 0.27016336 -0.6951567 -0.66615987
vn -0.005329841 -0.6951567 -0.7188385
vn -0.28001142 -0.6951567 -0.66208065
vn -0.3611966 -0.37436706 -0.85404116
vn -0.006875183 -0.37436706 -0.9272551
vn -0.006875183 -0.37436706 -0.9272551
vn -0.005329841 -0.6951567 -0.7188385
vn -0.28001142 -0.6951567 -0.66208065
vn -0.28713486 -0.91515917 -0.28290868
vn -0.512064 -0.6951567 -0.50452715
vn -0.28001142 -0.6951567 -0.66208065
vn -0.28001142 -0.6951567 -0.66208065
vn -0.15701364 -0.91515917 -0.37125516
vn -0.28713486 -0.91515917 -0.28290868
vn -0.37354246 -0.91515917 -0.15149178
vn -0.6661596 -0.6951567 -0.27016395
vn -0.512064 -0.6951567 -0.50452715
vn -0.512064 -0.6951567 -0.50452715
vn -0.28713486 -0.91515917 -0.28290868
vn -0.37354246 -0.91515917 -0.15149178
vn -0.40308166 -0.91515917 0.0029883296
vn -0.71883845 -0.69515675 0.005329154
vn -0.6661596 -0.6951567 -0.27016395
vn -0.6661596 -0.6951567 -0.27016395
vn -0.37354246 -0.91515917 -0.15149178
vn -0.40308166 -0.91515917 0.0029883296
vn -0.37125525 -0.91515917 0.1570134
vn -0.6620807 -0.6951567 0.28001112
vn -0.71883845 -0.69515675 0.005329154
vn -0.71883845 -0.69515675 0.005329154
vn -0.40308166 -0.91515917 0.0029883296
vn -0.37125525 -0.91515917 0.1570134
vn -0.28290874 -0.91515917 0.28713477
vn -0.5045273 -0.6951567 0.5120638
vn -0.6620807 -0.6951567 0.28001112
vn -0.6620807 -0.6951567 0.28001112
vn -0.37125525 -0.91515917 0.1570134
vn -0.28290874 -0.91515917 0.28713477
vn -0.15149185 -0.91515917 0.37354246
vn -0.2701642 -0.69515675 0.66615945
vn -0.5045273 -0.6951567 0.5120638
vn -0.5045273 -0.6951567 0.5120638
vn -0.28290874 -0.91515917 0.28713477
vn -0.15149185 -0.91515917 0.37354246
vn 0.0029882814 -0.91515917 0.40308166
vn 0.0053290855 -0.6951567 0.71883845
vn -0.2701642 -0.69515675 0.66615945
vn -0.2701642 -0.69515675 0.66615945
vn -0.15149185 -0.91515917 0.37354246
vn 0.0029882814 -0.91515917 0.40308166
vn 0.15701346 -0.91515917 0.37125522
vn 0.2800112 -0.69515663 0.66208076
vn 0.0053290855 -0.6951567 0.71883845
vn 0.0053290855 -0.6951567 0.71883845
vn 0.0029882814 -0.91515917 0.40308166
vn 0.15701346 -0.91515917 0.37125522
vn 0.28713492 -0.91515917 0.28290865
vn 0.51206404 -0.6951567 0.5045271
vn 0.2800112 -0.69515663 0.66208076
vn 0.2800112 -0.69515663 0.66208076
vn 0.15701346 -0.91515917 0.37125522
vn 0.28713492 -0.91515917 0.28290865
vn 0.37354252 -0.91515917 0.15149172
vn 0.66615963 -0.6951567 0.27016377
vn 0.51206404 -0.6951567 0.5045271
vn 0.51206404 -0.6951567 0.5045271
vn 0.28713492 -0.91515917 0.28290865
vn 0.37354252 -0.91515917 0.15149172
vn 0.40308166 -0.91515917 -0.002988549
vn 0.7188386 -0.69515663 -0.0053296797
vn 0.66615963 -0.6951567 0.27016377
vn 0.66615963 -0.6951567 0.27016377
vn 0.37354252 -0.91515917 0.15149172
vn 0.40308166 -0.91515917 -0.002988549
vn 0.3712552 -0.9151591 -0.1570138
vn 0.66208065 -0.69515663 -0.28001168
vn 0.7188386 -0.69515663 -0.0053296797
vn 0.7188386 -0.69515663 -0.0053296797
vn 0.40308166 -0.91515917 -0.002988549
vn 0.3712552 -0.9151591 -0.1570138
vn 0.28290847 -0.91515917 -0.28713503
vn 0.50452685 -0.69515663 -0.5120643
vn 0.66208065 -0.69515663 -0.28001168
vn 0.66208065 -0.69515663 -0.28001168
vn 0.3712552 -0.9151591 -0.1570138
vn 0.28290847 -0.91515917 -0.28713503
vn 0.15149146 -0.9151591 -0.37354255
vn 0.27016336 -0.6951567 -0.66615987
vn 0.50452685 -0.69515663 -0.5120643
vn 0.50452685 -0.69515663 -0.5120643
vn 0.28290847 -0.91515917 -0.28713503
vn 0.15149146 -0.9151591 -0.37354255
vn -0.0029886768 -0.91515917 -0.4030816
vn -0.005329841 -0.6951567 -0.7188385
vn 0.27016336 -0.6951567 -0.66615987
vn 0.27016336 -0.6951567 -0.66615987
vn 0.15149146 -0.9151591 -0.37354255
vn -0.0029886768 -0.91515917 -0.4030816
vn -0.15701364 -0.91515917 -0.37125516
vn -0.28001142 -0.6951567 -0.66208065
vn -0.005329841 -0.6951567 -0.7188385
vn -0.005329841 -0.6951567 -0.7188385
vn -0.0029886768 -0.91515917 -0.4030816
vn -0.15701364 -0.91515917 -0.37125516
vn -1.3727673E-08 -0.99999994 1.7275275E-08
vn -0.28713486 -0.91515917 -0.28290868
vn -0.15701364 -0.91515917 -0.37125516
vn -1.3727673E-08 -0.99999994 1.7275275E-08
vn -0.37354246 -0.91515917 -0.15149178
vn -0.28713486 -0.91515917 -0.28290868
vn -1.3727673E-08 -0.99999994 1.7275275E-08
vn -0.40308166 -0.91515917 0.0029883296
vn -0.37354246 -0.91515917 -0.15149178
vn -1.3727673E-08 -0.99999994 1.7275275E-08
vn -0.37125525 -0.91515917 0.1570134
vn -0.40308166 -0.91515917 0.0029883296
vn -1.3727673E-08 -0.99999994 1.7275275E-08
vn -0.28290874 -0.91515917 0.28713477
vn -0.37125525 -0.91515917 0.1570134
vn -1.3727673E-08 -0.99999994 1.7275275E-08
vn -0.15149185 -0.91515917 0.37354246
vn -0.28290874 -0.91515917 0.28713477
vn -1.3727673E-08 -0.99999994 1.7275275E-08
vn 0.0029882814 -0.91515917 0.40308166
vn -0.15149185 -0.91515917 0.37354246
vn -1.3727673E-08 -0.99999994 1.7275275E-08
vn 0.15701346 -0.91515917 0.37125522
vn 0.0029882814 -0.91515917 0.40308166
vn -1.3727673E-08 -0.99999994 1.7275275E-08
vn 0.28713492 -0.91515917 0.28290865
vn 0.15701346 -0.91515917 0.37125522
vn -1.3727673E-08 -0.99999994 1.7275275E-08
vn 0.37354252 -0.91515917 0.15149172
vn 0.28713492 -0.91515917 0.28290865
vn -1.3727673E-08 -0.99999994 1.7275275E-08
vn 0.40308166 -0.91515917 -0.002988549
vn 0.37354252 -0.91515917 0.15149172
vn -1.3727673E-08 -0.99999994 1.7275275E-08
vn 0.3712552 -0.9151591 -0.1570138
vn 0.40308166 -0.91515917 -0.002988549
vn -1.3727673E-08 -0.99999994 1.7275275E-08
vn 0.28290847 -0.91515917 -0.28713503
vn 0.3712552 -0.9151591 -0.1570138
vn -1.3727673E-08 -0.99999994 1.7275275E-08
vn 0.15149146 -0.9151591 -0.37354255
vn 0.28290847 -0.91515917 -0.28713503
vn -1.3727673E-08 -0.99999994 1.7275275E-08
vn -0.0029886768 -0.91515917 -0.4030816
vn 0.15149146 -0.9151591 -0.37354255
vn -1.3727673E-08 -0.99999994 1.7275275E-08
vn -0.15701364 -0.91515917 -0.37125516
vn -0.0029886768 -0.91515917 -0.4030816
vn -0.052337892 -0.99862945 -1.4074882E-06
vn -0.0523446 -0.9986291 -1.38995565E-05
vn -0.052336376 -0.9986295 -2.0250839E-06
vn -0.052336376 -0.9986295 -2.0250839E-06
vn -0.052332297 -0.9986297 -2.0030431E-05
vn -0.05233503 -0.99862957 -1.6711455E-06
vn -0.05233503 -0.99862957 -1.6711455E-06
vn -0.052326445 -0.99863005 -7.812978E-06
vn -0.052334644 -0.99862957 -4.3452192E-07
vn -0.052336376 -0.9986295 -2.0250839E-06
vn -0.05233503 -0.99862957 -1.6711455E-06
vn -0.052334644 -0.99862957 -4.3452192E-07
vn -0.052334644 -0.99862957 -4.3452192E-07
vn -0.052324533 -0.9986301 -6.2249277E-09
vn -0.052334454 -0.99862957 4.819872E-07
vn -0.052334454 -0.99862957 4.819872E-07
vn -0.052326433 -0.99863005 7.807443E-06
vn -0.05233523 -0.99862957 1.5122841E-06
vn -0.052334644 -0.99862957 -4.3452192E-07
vn -0.052334454 -0.99862957 4.819872E-07
vn -0.05233523 -0.99862957 1.5122841E-06
vn -0.05233523 -0.99862957 1.5122841E-06
vn -0.052332263 -0.9986297 2.0107886E-05
vn -0.05233629 -0.9986295 1.1969355E-06
vn -0.05233629 -0.9986295 1.1969355E-06
vn -0.052344583 -0.9986291 1.3833134E-05
vn -0.052337285 -0.99862945 1.0224867E-06
vn -0.05233523 -0.99862957 1.5122841E-06
vn -0.05233629 -0.9986295 1.1969355E-06
vn -0.052337285 -0.99862945 1.0224867E-06
vn -0.052334644 -0.99862957 -4.3452192E-07
vn -0.05233523 -0.99862957 1.5122841E-06
vn -0.052337285 -0.99862945 1.0224867E-06
vn -0.052336376 -0.9986295 -2.0250839E-06
vn -0.052334644 -0.99862957 -4.3452192E-07
vn -0.052337285 -0.99862945 1.0224867E-06
vn -0.052337285 -0.99862945 1.0224867E-06
vn -0.052346688 -0.9986289 3.9175434E-06
vn -0.052337624 -0.9986294 4.1502613E-08
vn -0.052336376 -0.9986295 -2.0250839E-06
vn -0.052337285 -0.99862945 1.0224867E-06
vn -0.052337624 -0.9986294 4.1502613E-08
vn -0.052337892 -0.99862945 -1.4074882E-06
vn -0.052336376 -0.9986295 -2.0250839E-06
vn -0.052337624 -0.9986294 4.1502613E-08
vn -0.052346684 -0.998629 -3.945197E-06
vn -0.052337892 -0.99862945 -1.4074882E-06
vn -0.052337624 -0.9986294 4.1502613E-08
vn 0.99862957 -0.05233596 1.1462988E-06
vn 0.9384054 -0.04917974 -0.34201849
vn 0.9384042 -0.04917968 -0.34202182
vn 0.9384042 -0.04917968 -0.34202182
vn 0.9986295 -0.05233596 -4.431095E-07
vn 0.99862957 -0.05233596 1.1462988E-06
vn 0.9384054 -0.04917974 -0.34201849
vn 0.7649953 -0.040091705 -0.64278674
vn 0.76499414 -0.04009165 -0.6427882
vn 0.76499414 -0.04009165 -0.6427882
vn 0.9384042 -0.04917968 -0.34202182
vn 0.9384054 -0.04917974 -0.34201849
vn 0.7649953 -0.040091705 -0.64278674
vn 0.4993166 -0.026168069 -0.8660243
vn 0.49931145 -0.026167808 -0.86602736
vn 0.49931145 -0.026167808 -0.86602736
vn 0.76499414 -0.04009165 -0.6427882
vn 0.7649953 -0.040091705 -0.64278674
vn 0.4993166 -0.026168069 -0.8660243
vn 0.17340948 -0.009088003 -0.98480785
vn 0.17340967 -0.009088016 -0.98480785
vn 0.17340967 -0.009088016 -0.98480785
vn 0.49931145 -0.026167808 -0.86602736
vn 0.4993166 -0.026168069 -0.8660243
vn 0.17340948 -0.009088003 -0.98480785
vn -0.17340843 0.009087951 -0.9848081
vn -0.17341079 0.009088075 -0.98480767
vn -0.17341079 0.009088075 -0.98480767
vn 0.17340967 -0.009088016 -0.98480785
vn 0.17340948 -0.009088003 -0.98480785
vn -0.17340843 0.009087951 -0.9848081
vn -0.49931526 0.026167998 -0.8660251
vn -0.49931622 0.026168052 -0.8660245
vn -0.49931622 0.026168052 -0.8660245
vn -0.17341079 0.009088075 -0.98480767
vn -0.17340843 0.009087951 -0.9848081
vn -0.49931526 0.026167998 -0.8660251
vn -0.76499444 0.040091656 -0.6427878
vn -0.76499444 0.040091664 -0.64278775
vn -0.76499444 0.040091664 -0.64278775
vn -0.49931622 0.026168052 -0.8660245
vn -0.49931526 0.026167998 -0.8660251
vn -0.76499444 0.040091656 -0.6427878
vn -0.93840486 0.049179725 -0.34201974
vn -0.9384045 0.049179688 -0.3420209
vn -0.9384045 0.049179688 -0.3420209
vn -0.76499444 0.040091664 -0.64278775
vn -0.76499444 0.040091656 -0.6427878
vn -0.93840486 0.049179725 -0.34201974
vn -0.9986295 0.05233596 -1.2070146E-06
vn -0.9986295 0.05233595 2.504488E-07
vn -0.9986295 0.05233595 2.504488E-07
vn -0.9384045 0.049179688 -0.3420209
vn -0.93840486 0.049179725 -0.34201974
vn -0.9986295 0.05233596 -1.2070146E-06
vn -0.9384047 0.0491797 0.34202054
vn -0.9384048 0.049179707 0.34202024
vn -0.9384048 0.049179707 0.34202024
vn -0.9986295 0.05233595 2.504488E-07
vn -0.9986295 0.05233596 -1.2070146E-06
vn -0.9384047 0.0491797 0.34202054
vn -0.7649954 0.04009171 0.64278656
vn -0.7649945 0.040091664 0.64278775
vn -0.7649945 0.040091664 0.64278775
vn -0.9384048 0.049179707 0.34202024
vn -0.9384047 0.0491797 0.34202054
vn -0.7649954 0.04009171 0.64278656
vn -0.49931383 0.02616793 0.86602587
vn -0.49931592 0.026168037 0.8660247
vn -0.49931592 0.026168037 0.8660247
vn -0.7649945 0.040091664 0.64278775
vn -0.7649954 0.04009171 0.64278656
vn -0.49931383 0.02616793 0.86602587
vn -0.17341164 0.009088118 0.98480743
vn -0.17340969 0.009088015 0.98480785
vn -0.17340969 0.009088015 0.98480785
vn -0.49931592 0.026168037 0.8660247
vn -0.49931383 0.02616793 0.86602587
vn -0.17341164 0.009088118 0.98480743
vn 0.17341097 -0.009088086 0.98480767
vn 0.17340904 -0.0090879835 0.9848079
vn 0.17340904 -0.0090879835 0.9848079
vn -0.17340969 0.009088015 0.98480785
vn -0.17341164 0.009088118 0.98480743
vn 0.17341097 -0.009088086 0.98480767
vn 0.49931192 -0.026167832 0.866027
vn 0.49931312 -0.026167892 0.8660264
vn 0.49931312 -0.026167892 0.8660264
vn 0.17340904 -0.0090879835 0.9848079
vn 0.17341097 -0.009088086 0.98480767
vn 0.49931192 -0.026167832 0.866027
vn 0.7649934 -0.040091608 0.6427891
vn 0.7649954 -0.040091712 0.6427867
vn 0.7649954 -0.040091712 0.6427867
vn 0.49931312 -0.026167892 0.8660264
vn 0.49931192 -0.026167832 0.866027
vn 0.7649934 -0.040091608 0.6427891
vn 0.93840426 -0.04917969 0.3420217
vn 0.9384053 -0.049179744 0.34201902
vn 0.9384053 -0.049179744 0.34201902
vn 0.7649954 -0.040091712 0.6427867
vn 0.7649934 -0.040091608 0.6427891
vn 0.93840426 -0.04917969 0.3420217
vn 0.99862957 -0.05233596 1.1462988E-06
vn 0.9986295 -0.05233596 -4.431095E-07
vn 0.9986295 -0.05233596 -4.431095E-07
vn 0.9384053 -0.049179744 0.34201902
vn 0.93840426 -0.04917969 0.3420217
vn 0.05233867 0.9986294 2.0662036E-08
vn 0.052398313 0.9986263 -2.4805704E-05
vn 0.05235009 0.99862874 -7.182542E-06
vn 0.05235009 0.99862874 -7.182542E-06
vn 0.05241716 0.9986252 -0.00011247966
vn 0.05234033 0.99862933 2.9624647E-07
vn 0.05234033 0.99862933 2.9624647E-07
vn 0.052293938 0.9986317 -0.00022652137
vn 0.05233324 0.9986297 -1.4689392E-05
vn 0.05235009 0.99862874 -7.182542E-06
vn 0.05234033 0.99862933 2.9624647E-07
vn 0.05233324 0.9986297 -1.4689392E-05
vn 0.05233324 0.9986297 -1.4689392E-05
vn 0.052292693 0.99863183 -3.613791E-05
vn 0.052328188 0.9986299 -2.2586007E-06
vn 0.052328188 0.9986299 -2.2586007E-06
vn 0.052258402 0.9986336 4.440892E-16
vn 0.05232732 0.9986299 2.291474E-06
vn 0.05233324 0.9986297 -1.4689392E-05
vn 0.052328188 0.9986299 -2.2586007E-06
vn 0.05232732 0.9986299 2.291474E-06
vn 0.05232732 0.9986299 2.291474E-06
vn 0.0522926 0.99863183 3.6254045E-05
vn 0.05232847 0.9986299 1.8070255E-05
vn 0.05232847 0.9986299 1.8070255E-05
vn 0.052293945 0.99863166 0.00022652136
vn 0.05234368 0.9986291 2.0497579E-05
vn 0.05232732 0.9986299 2.291474E-06
vn 0.05232847 0.9986299 1.8070255E-05
vn 0.05234368 0.9986291 2.0497579E-05
vn 0.05233324 0.9986297 -1.4689392E-05
vn 0.05232732 0.9986299 2.291474E-06
vn 0.05234368 0.9986291 2.0497579E-05
vn 0.05235009 0.99862874 -7.182542E-06
vn 0.05233324 0.9986297 -1.4689392E-05
vn 0.05234368 0.9986291 2.0497579E-05
vn 0.05234368 0.9986291 2.0497579E-05
vn 0.052417107 0.9986252 0.00011233582
vn 0.052356485 0.9986284 8.591433E-06
vn 0.05235009 0.99862874 -7.182542E-06
vn 0.05234368 0.9986291 2.0497579E-05
vn 0.052356485 0.9986284 8.591433E-06
vn 0.05233867 0.9986294 2.0662036E-08
vn 0.05235009 0.99862874 -7.182542E-06
vn 0.052356485 0.9986284 8.591433E-06
vn 0.052398022 0.99862623 2.4755689E-05
vn 0.05233867 0.9986294 2.0662036E-08
vn 0.052356485 0.9986284 8.591433E-06
vn -0.052335646 -0.99862957 -4.440892E-16
vn -0.05233564 -0.99862957 -4.440892E-16
vn -0.052335646 -0.99862957 -4.440892E-16
vn -0.052335646 -0.99862957 -4.440892E-16
vn -0.05233564 -0.99862957 -4.440892E-16
vn -0.052335646 -0.99862957 -4.440892E-16
vn 0.05233595 0.9986295 5.551115E-16
vn 0.05233595 0.99862957 4.440892E-16
vn 0.05233595 0.9986295 5.551115E-16
vn 0.05233595 0.9986295 5.551115E-16
vn 0.05233595 0.99862957 4.440892E-16
vn 0.05233595 0.9986295 5.551115E-16
vn 1.5381435E-09 2.9349614E-08 1
vn 1.5381394E-09 2.9349625E-08 1
vn 1.5381436E-09 2.9349616E-08 1
vn 1.5381436E-09 2.9349616E-08 1
vn 1.5381478E-09 2.934961E-08 1
vn 1.5381435E-09 2.9349614E-08 1
vn 0.99862945 -0.05233596 -2.7755576E-17
vn 0.99862957 -0.052335963 -2.7755576E-17
vn 0.99862945 -0.05233596 -2.7755576E-17
vn 0.99862945 -0.05233596 -2.7755576E-17
vn 0.99862957 -0.052335963 -2.7755576E-17
vn 0.99862945 -0.05233596 -2.7755576E-17
vn -1.5381436E-09 -2.9349618E-08 -1
vn -1.5381388E-09 -2.9349614E-08 -1
vn -1.5381435E-09 -2.9349616E-08 -1
vn -1.5381435E-09 -2.9349616E-08 -1
vn -1.5381483E-09 -2.934962E-08 -1
vn -1.5381436E-09 -2.9349618E-08 -1
vn -0.99862957 0.05233595 2.7755576E-17
vn -0.9986295 0.052335944 2.7755576E-17
vn -0.99862957 0.05233595 2.7755576E-17
vn -0.99862957 0.05233595 2.7755576E-17
vn -0.9986295 0.052335944 2.7755576E-17
vn -0.99862957 0.05233595 2.7755576E-17
vn -0.052335642 -0.9986295 -5.551115E-16
vn -0.052335642 -0.99862957 -4.440892E-16
vn -0.052335642 -0.9986295 -5.551115E-16
vn -0.052335642 -0.9986295 -5.551115E-16
vn -0.052335642 -0.99862957 -4.440892E-16
vn -0.052335642 -0.9986295 -5.551115E-16
vn 0.05233627 0.9986295 5.551115E-16
vn 0.05233627 0.99862957 4.440892E-16
vn 0.05233627 0.9986295 5.551115E-16
vn 0.05233627 0.9986295 5.551115E-16
vn 0.05233627 0.99862957 4.440892E-16
vn 0.05233627 0.9986295 5.551115E-16
vn 1.5381486E-09 2.9349623E-08 1
vn 1.53814E-09 2.9349634E-08 1
vn 1.5381485E-09 2.9349623E-08 1
vn 1.5381485E-09 2.9349623E-08 1
vn 1.5381572E-09 2.934961E-08 1
vn 1.5381486E-09 2.9349623E-08 1
vn 0.99862957 -0.05233598 -2.7755576E-17
vn 0.99862957 -0.05233598 -2.7755576E-17
vn 0.99862957 -0.05233598 -2.7755576E-17
vn 0.99862957 -0.05233598 -2.7755576E-17
vn 0.99862957 -0.05233598 -2.7755576E-17
vn 0.99862957 -0.05233598 -2.7755576E-17
vn -1.5381485E-09 -2.9349623E-08 -0.99999994
vn -1.538139E-09 -2.9349616E-08 -1
vn -1.5381484E-09 -2.9349621E-08 -0.99999994
vn -1.5381484E-09 -2.9349621E-08 -0.99999994
vn -1.5381582E-09 -2.934963E-08 -1
vn -1.5381485E-09 -2.9349623E-08 -0.99999994
vn -0.99862957 0.05233595 2.7755576E-17
vn -0.9986295 0.052335944 2.7755576E-17
vn -0.99862957 0.05233595 2.7755576E-17
vn -0.99862957 0.05233595 2.7755576E-17
vn -0.9986295 0.052335944 2.7755576E-17
vn -0.99862957 0.05233595 2.7755576E-17
# 1152 vertex normals

vt 0.4477439 0.061627142 0
vt 0.46553153 0.030813579 0
vt 0.55425566 0.082031146 0
vt 0.05122843 0.5467083 0
vt 0.023971858 0.5238401 0
vt 0.16314079 0.55464417 0
vt 0.18092851 0.52383053 0
vt 0.25207916 0.4005763 0
vt 0.26986688 0.36976272 0
vt 0.35859096 0.42098027 0
vt 0.34080333 0.45179388 0
vt 0.2876545 0.33894914 0
vt 0.3232299 0.277322 0
vt 0.34101763 0.24650845 0
vt 0.4297417 0.2977261 0
vt 0.411954 0.32853964 0
vt 0.53646797 0.11284472 0
vt 0.48331922 6.460786E-17 0
vt 0.5720434 0.051217563 0
vt 0.41216847 0.12325434 0
vt 0.4299562 0.09244078 0
vt 0.5772297 0.2440358 0
vt 0.6044862 0.26690423 0
vt 0.26965266 0.57504815 0
vt 0.25186497 0.6058617 0
vt 0.37637866 0.39016676 0
vt 0.3054422 0.30813557 0
vt 0.39416638 0.35935318 0
vt 0.35880545 0.21569493 0
vt 0.4475295 0.26691267 0
vt 0.37659314 0.1848814 0
vt 0.46531722 0.23609908 0
vt 0.5186803 0.14365837 0
vt 0.50089264 0.17447194 0
vt 0.19871622 0.49301702 0
vt 0.2874403 0.5442346 0
vt 0.0061803423 0.4930287 0
vt 0 0.45799044 0
vt 0.0061761676 0.42295143 0
vt 0.02396388 0.3921379 0
vt 0.051217668 0.3692664 0
vt 0.08465041 0.35709554 0
vt 0.12022964 0.35709342 0
vt 0.15366377 0.36926016 0
vt 0.18092044 0.39212835 0
vt 0.19871186 0.42293975 0
vt 0.2048923 0.45797798 0
vt 0.6222774 0.29771575 0
vt 0.62845755 0.33275408 0
vt 0.6222812 0.36779305 0
vt 0.6044932 0.39860648 0
vt 0.5772392 0.4214778 0
vt 0.5438064 0.43364832 0
vt 0.5082273 0.43365029 0
vt 0.47479314 0.42148325 0
vt 0.44753665 0.39861488 0
vt 0.4297454 0.36780334 0
vt 0.42356527 0.33276507 0
vt 0.31812492 0.8005405 0
vt 0.29848805 0.77180225 0
vt 0.31043816 0.7659964 0
vt 0.3239548 0.7661391 0
vt 0.33673757 0.77146286 0
vt 0.34683827 0.7807588 0
vt 0.35259756 0.79274243 0
vt 0.3524349 0.80628747 0
vt 0.34710097 0.8190998 0
vt 0.33779475 0.82923174 0
vt 0.32580042 0.83502537 0
vt 0.31225303 0.83490443 0
vt 0.29945573 0.82962334 0
vt 0.28936422 0.8203601 0
vt 0.28365305 0.80836815 0
vt 0.28386942 0.79479986 0
vt 0.28921536 0.7819616 0
vt 0.2788676 0.7428474 0
vt 0.30170876 0.72962207 0
vt 0.32874522 0.7317745 0
vt 0.35434774 0.7430543 0
vt 0.37572664 0.7610431 0
vt 0.38887993 0.7839959 0
vt 0.38673472 0.811072 0
vt 0.375461 0.8366927 0
vt 0.3574699 0.85808206 0
vt 0.3344977 0.87126184 0
vt 0.30737796 0.8691982 0
vt 0.28172326 0.8580646 0
vt 0.26035002 0.84017706 0
vt 0.24736764 0.8171491 0
vt 0.24972168 0.7900288 0
vt 0.26100883 0.76433575 0
vt 0.25783208 0.7155636 0
vt 0.2914085 0.6893282 0
vt 0.15373795 0.66154796 0
vt 0.4029324 0.74000096 0
vt 0.4290709 0.77382237 0
vt 0.11575293 0.6496158 0
vt 0.3785193 0.8852605 0
vt 0.34471345 0.91134685 0
vt 0.1176052 0.63445765 0
vt 0.23301648 0.86143535 0
vt 0.20705768 0.8271502 0
vt 0.1571632 0.63102424 0
vt 0.11353019 0.6197393 0
vt 0.33474147 0.6971993 0
vt 0.4212696 0.81711555 0
vt 0.3013297 0.90367335 0
vt 0.21547145 0.7840052 0
vt 0.23295787 0.7473598 0
vt 0.3713248 0.7147654 0
vt 0.40373483 0.85367537 0
vt 0.26459214 0.8864514 0
vt 0.22600026 0.69481766 0
vt 0.2503104 0.6612566 0
vt 0.19074075 0.677373 0
vt 0.16624089 0.6338626 0
vt 0.4419448 0.6737481 0
vt 0.45985326 0.6381782 0
vt 0.4869385 0.6513766 0
vt 0.4447658 0.9242766 0
vt 0.48033684 0.9421806 0
vt 0.46713778 0.9692673 0
vt 0.097039625 0.79123265 0
vt 0.07805951 0.755141 0
vt 0.101780705 0.7388814 0
vt 0.2074729 0.6432636 0
vt 0.16997895 0.60569906 0
vt 0.21087773 0.60569364 0
vt 0.14876197 0.60149115 0
vt 0.47566098 0.6916879 0
vt 0.5149671 0.6563781 0
vt 0.512919 0.6971349 0
vt 0.10414853 0.60769486 0
vt 0.4268247 0.95799106 0
vt 0.462137 0.9972958 0
vt 0.42137975 0.9952495 0
vt 0.1297397 0.5773871 0
vt 0.12840259 0.77092457 0
vt 0.120639965 0.7157945 0
vt 0.15091206 0.7417754 0
vt 0.09088194 0.60015124 0
vt 0.102953345 0.5623701 0
vt 0.07574426 0.59825325 0
vt 0.0724598 0.55872846 0
vt 0.06103564 0.6022878 0
vt 0.042890318 0.56702125 0
vt 0.048991367 0.6116392 0
vt 0.018740045 0.5859901 0
vt 0.041441157 0.62488365 0
vt 0.0036805766 0.61275065 0
vt 0.03953118 0.6400066 0
vt 0 0.64323264 0
vt 0.043550774 0.65470856 0
vt 0.008254377 0.6728006 0
vt 0.0528892 0.66675436 0
vt 0.027182482 0.69695973 0
vt 0.06612831 0.6743116 0
vt 0.053896885 0.7120433 0
vt 0.08125832 0.6762294 0
vt 0.0843272 0.71577764 0
vt 0.0959849 0.6722139 0
vt 0.1138512 0.70763135 0
vt 0.10808364 0.662872 0
vt 0.13801248 0.6888847 0
vt 0.07856297 0.6372444 0
vt 0.883266 0.018013828 0
vt 0.88644207 0.018011352 0
vt 0.88703907 0.7863571 0
vt 0.8800899 0.01801629 0
vt 0.87710446 0.016932309 0
vt 0.88961816 0.018008891 0
vt 0.89279425 0.018006414 0
vt 0.9054986 0.017996546 0
vt 0.9086748 0.017994083 0
vt 0.9092718 0.78633994 0
vt 0.90609574 0.7863423 0
vt 0.86103326 0.018031098 0
vt 0.86420935 0.018028637 0
vt 0.86480635 0.7863745 0
vt 0.8616303 0.7863769 0
vt 0.86738545 0.018026158 0
vt 0.8679825 0.7863719 0
vt 0.88386303 0.7863596 0
vt 0.8806869 0.78636205 0
vt 0.8868484 0.7874436 0
vt 0.88928294 0.7894833 0
vt 0.89087313 0.7922327 0
vt 0.8933913 0.78635216 0
vt 0.8902152 0.78635466 0
vt 0.9118508 0.01799161 0
vt 0.9124479 0.7863374 0
vt 0.91502696 0.01798915 0
vt 0.91562396 0.786335 0
vt 0.87056154 0.018023703 0
vt 0.8711586 0.78636956 0
vt 0.87373763 0.018021224 0
vt 0.8743347 0.786367 0
vt 0.8769137 0.018018764 0
vt 0.8775108 0.78636456 0
vt 0.89142704 0.79536015 0
vt 0.89597034 0.01800396 0
vt 0.8965674 0.78634983 0
vt 0.87466985 0.014892638 0
vt 0.87307966 0.012143284 0
vt 0.87252575 0.009015865 0
vt 0.8730748 0.0058875903 0
vt 0.87466073 0.0031357782 0
vt 0.8770922 0.0010923353 0
vt 0.8800759 3.7336492E-06 0
vt 0.883252 1.270945E-06 0
vt 0.8862374 0.0010852488 0
vt 0.888672 0.0031249197 0
vt 0.8902622 0.0058742706 0
vt 0.89081615 0.009001691 0
vt 0.8902671 0.012129965 0
vt 0.8908779 0.7984883 0
vt 0.889292 0.8012402 0
vt 0.8868605 0.8032836 0
vt 0.8838768 0.8043722 0
vt 0.88070065 0.80437464 0
vt 0.8777153 0.80329055 0
vt 0.8752807 0.8012509 0
vt 0.87369055 0.79850155 0
vt 0.8731366 0.7953741 0
vt 0.8736858 0.7922458 0
vt 0.8752717 0.78949404 0
vt 0.87770313 0.7874506 0
vt 0.622608 0.17011455 0
vt 0.6162138 0.17044757 0
vt 0.60810924 0.014832833 0
vt 0.61450344 0.014499806 0
vt 0.7782228 0.16200992 0
vt 0.7701182 0.006395177 0
vt 0.7765124 0.00606215 0
vt 0.784617 0.16167688 0
vt 0.61417043 0.008105595 0
vt 0.76978517 9.657426E-07 0
vt 0.63104576 0.3321235 0
vt 0.6229411 0.17650875 0
vt 0.77855587 0.16840413 0
vt 0.7866605 0.32401893 0
vt 0.17017913 0.16200571 0
vt 0.17051499 0.16839978 0
vt 0.014903885 0.17657365 0
vt 0.014568037 0.17017958 0
vt 0.16200517 0.006394512 0
vt 0.006394073 0.014568523 0
vt 0.0060582245 0.008174449 0
vt 0.16166933 4.388889E-07 0
vt 0.008173964 0.17051546 0
vt 0 0.0149043705 0
vt 0.17868885 0.3240109 0
vt 0.023077711 0.3321847 0
vt 0.1765732 0.1616698 0
vt 0.16839924 0.0060586636 0
vt 0.21650384 0.46220344 0
vt 0.305228 0.513421 0
vt 0.23429155 0.43138987 0
vt 0.32301563 0.4826074 0
vt 0.39438078 0.15406787 0
vt 0.4831049 0.2052855 0
vt 0.47478357 0.24404131 0
vt 0.5082164 0.23187073 0
vt 0.5437955 0.2318688 0
vt 0.15367462 0.5467021 0
vt 0.12024188 0.5588729 0
vt 0.08466275 0.5588751 0
vt 0.89914644 0.01800148 0
vt 0.8997435 0.7863472 0
vt 0.9023226 0.017999021 0
vt 0.9029196 0.7863449 0
vt 0.8886811 0.014881778 0
vt 0.88624966 0.016925225 0
vt 0.91820306 0.017986674 0
vt 0.9188001 0.7863325 0
vt 0.32004008 0.95429575 0
vt 0.28314692 0.9370587 0
vt 0.24627408 0.9169429 0
vt 0.21171096 0.89341146 0
vt 0.17930049 0.86649424 0
vt 0.2947435 0.98905575 0
vt 0.25997794 0.97048783 0
vt 0.22661512 0.94903004 0
vt 0.19212736 0.928781 0
vt 0.15887377 0.9053383 0
vt 0.22967817 1 0
vt 0.20599835 0.9826068 0
vt 0.17929159 0.96873397 0
vt 0.31654724 0.6462424 0
vt 0.35319778 0.6637273 0
vt 0.38948393 0.6844443 0
vt 0.42380646 0.7084044 0
vt 0.4570657 0.7334063 0
vt 0.34230676 0.61155236 0
vt 0.3772003 0.6302521 0
vt 0.40953347 0.65258324 0
vt 0.41027576 0.60258293 0
vt 0.43330824 0.62137103 0
vt 0.16313766 0.8012851 0
vt 0.18256386 0.7657464 0
vt 0.2028597 0.7294037 0
vt 0.17108178 0.7098724 0
vt 0.47219488 0.79888093 0
vt 0.45475498 0.83554167 0
vt 0.43406042 0.8718259 0
vt 0.4101101 0.90614045 0
vt 0.38510498 0.9393858 0
vt 0.50690985 0.8246085 0
vt 0.4882437 0.85952103 0
vt 0.46592546 0.89186347 0
vt 0.51592267 0.8925914 0
vt 0.4971412 0.9156306 0
# 312 texture coords

s 1
f 17/5/1 16/37/2 15/38/3
f 15/38/4 14/39/5 13/40/6
f 13/40/7 12/41/8 11/42/9
f 15/38/10 13/40/11 11/42/12
f 11/42/13 10/43/14 9/44/15
f 9/44/16 8/45/17 7/46/18
f 11/42/19 9/44/20 7/46/21
f 7/46/22 6/47/23 5/35/24
f 5/35/25 4/7/26 3/265/27
f 7/46/28 5/35/29 3/265/30
f 11/42/31 7/46/32 3/265/33
f 15/38/34 11/42/35 3/265/36
f 3/265/37 2/266/38 1/267/39
f 15/38/40 3/265/41 1/267/42
f 17/5/43 15/38/44 1/267/45
f 18/4/46 17/5/47 1/267/48
f 1/1/49 2/2/50 20/3/51
f 20/3/52 19/17/53 1/1/54
f 2/2/55 3/18/56 21/19/57
f 21/19/58 20/3/59 2/2/60
f 3/6/61 4/7/62 22/24/63
f 22/24/64 21/25/65 3/6/66
f 4/7/67 5/35/68 23/36/69
f 23/36/70 22/24/71 4/7/72
f 5/35/73 6/256/74 24/257/75
f 24/257/76 23/36/77 5/35/78
f 6/256/79 7/258/80 25/259/81
f 25/259/82 24/257/83 6/256/84
f 7/258/85 8/8/86 26/11/87
f 26/11/88 25/259/89 7/258/90
f 8/8/91 9/9/92 27/10/93
f 27/10/94 26/11/95 8/8/96
f 9/9/97 10/12/98 28/26/99
f 28/26/100 27/10/101 9/9/102
f 10/12/103 11/27/104 29/28/105
f 29/28/106 28/26/107 10/12/108
f 11/27/109 12/13/110 30/16/111
f 30/16/112 29/28/113 11/27/114
f 12/13/115 13/14/116 31/15/117
f 31/15/118 30/16/119 12/13/120
f 13/14/121 14/29/122 32/30/123
f 32/30/124 31/15/125 13/14/126
f 14/29/127 15/31/128 33/32/129
f 33/32/130 32/30/131 14/29/132
f 15/31/133 16/260/134 34/261/135
f 34/261/136 33/32/137 15/31/138
f 16/260/139 17/20/140 35/34/141
f 35/34/142 34/261/143 16/260/144
f 17/20/145 18/21/146 36/33/147
f 36/33/148 35/34/149 17/20/150
f 18/21/151 1/1/152 19/17/153
f 19/17/154 36/33/155 18/21/156
f 19/23/157 20/48/158 21/49/159
f 21/49/160 22/50/161 23/51/162
f 23/51/163 24/52/164 25/53/165
f 21/49/166 23/51/167 25/53/168
f 25/53/169 26/54/170 27/55/171
f 27/55/172 28/56/173 29/57/174
f 25/53/175 27/55/176 29/57/177
f 29/57/178 30/58/179 31/15/180
f 31/15/181 32/30/182 33/262/183
f 29/57/184 31/15/185 33/262/186
f 25/53/187 29/57/188 33/262/189
f 21/49/190 25/53/191 33/262/192
f 33/262/193 34/263/194 35/264/195
f 21/49/196 33/262/197 35/264/198
f 19/23/199 21/49/200 35/264/201
f 36/22/202 19/23/203 35/264/204
f 37/59/205 38/60/206 39/61/207
f 37/59/208 39/61/209 40/62/210
f 37/59/211 40/62/212 41/63/213
f 37/59/214 41/63/215 42/64/216
f 37/59/217 42/64/218 43/65/219
f 37/59/220 43/65/221 44/66/222
f 37/59/223 44/66/224 45/67/225
f 37/59/226 45/67/227 46/68/228
f 37/59/229 46/68/230 47/69/231
f 37/59/232 47/69/233 48/70/234
f 37/59/235 48/70/236 49/71/237
f 37/59/238 49/71/239 50/72/240
f 37/59/241 50/72/242 51/73/243
f 37/59/244 51/73/245 52/74/246
f 37/59/247 52/74/248 53/75/249
f 37/59/250 53/75/251 38/60/252
f 55/77/253 39/61/254 38/60/255
f 38/60/256 54/76/257 55/77/258
f 56/78/259 40/62/260 39/61/261
f 39/61/262 55/77/263 56/78/264
f 57/79/265 41/63/266 40/62/267
f 40/62/268 56/78/269 57/79/270
f 58/80/271 42/64/272 41/63/273
f 41/63/274 57/79/275 58/80/276
f 59/81/277 43/65/278 42/64/279
f 42/64/280 58/80/281 59/81/282
f 60/82/283 44/66/284 43/65/285
f 43/65/286 59/81/287 60/82/288
f 61/83/289 45/67/290 44/66/291
f 44/66/292 60/82/293 61/83/294
f 62/84/295 46/68/296 45/67/297
f 45/67/298 61/83/299 62/84/300
f 63/85/301 47/69/302 46/68/303
f 46/68/304 62/84/305 63/85/306
f 64/86/307 48/70/308 47/69/309
f 47/69/310 63/85/311 64/86/312
f 65/87/313 49/71/314 48/70/315
f 48/70/316 64/86/317 65/87/318
f 66/88/319 50/72/320 49/71/321
f 49/71/322 65/87/323 66/88/324
f 67/89/325 51/73/326 50/72/327
f 50/72/328 66/88/329 67/89/330
f 68/90/331 52/74/332 51/73/333
f 51/73/334 67/89/335 68/90/336
f 69/91/337 53/75/338 52/74/339
f 52/74/340 68/90/341 69/91/342
f 54/76/343 38/60/344 53/75/345
f 53/75/346 69/91/347 54/76/348
f 71/93/349 55/77/350 54/76/351
f 54/76/352 70/92/353 71/93/354
f 72/105/355 56/78/356 55/77/357
f 55/77/358 71/93/359 72/105/360
f 73/110/361 57/79/362 56/78/363
f 56/78/364 72/105/365 73/110/366
f 74/95/367 58/80/368 57/79/369
f 57/79/370 73/110/371 74/95/372
f 75/96/373 59/81/374 58/80/375
f 58/80/376 74/95/377 75/96/378
f 76/106/379 60/82/380 59/81/381
f 59/81/382 75/96/383 76/106/384
f 77/111/385 61/83/386 60/82/387
f 60/82/388 76/106/389 77/111/390
f 78/98/391 62/84/392 61/83/393
f 61/83/394 77/111/395 78/98/396
f 79/99/397 63/85/398 62/84/399
f 62/84/400 78/98/401 79/99/402
f 80/107/403 64/86/404 63/85/405
f 63/85/406 79/99/407 80/107/408
f 81/112/409 65/87/410 64/86/411
f 64/86/412 80/107/413 81/112/414
f 82/101/415 66/88/416 65/87/417
f 65/87/418 81/112/419 82/101/420
f 83/102/421 67/89/422 66/88/423
f 66/88/424 82/101/425 83/102/426
f 84/108/427 68/90/428 67/89/429
f 67/89/430 83/102/431 84/108/432
f 85/109/433 69/91/434 68/90/435
f 68/90/436 84/108/437 85/109/438
f 70/92/439 54/76/440 69/91/441
f 69/91/442 85/109/443 70/92/444
f 87/114/445 71/93/446 70/92/447
f 70/92/448 86/113/449 87/114/450
f 88/290/451 72/105/452 71/93/453
f 71/93/454 87/289/455 88/290/456
f 89/291/457 73/110/458 72/105/459
f 72/105/460 88/290/461 89/291/462
f 90/292/463 74/95/464 73/110/465
f 73/110/466 89/291/467 90/292/468
f 91/293/469 75/96/470 74/95/471
f 74/95/472 90/292/473 91/293/474
f 92/304/475 76/106/476 75/96/477
f 75/96/478 91/303/479 92/304/480
f 93/305/481 77/111/482 76/106/483
f 76/106/484 92/304/485 93/305/486
f 94/306/487 78/98/488 77/111/489
f 77/111/490 93/305/491 94/306/492
f 95/307/493 79/99/494 78/98/495
f 78/98/496 94/306/497 95/307/498
f 96/277/499 80/107/500 79/99/501
f 79/99/502 95/276/503 96/277/504
f 97/278/505 81/112/506 80/107/507
f 80/107/508 96/277/509 97/278/510
f 98/279/511 82/101/512 81/112/513
f 81/112/514 97/278/515 98/279/516
f 99/280/517 83/102/518 82/101/519
f 82/101/520 98/279/521 99/280/522
f 100/300/523 84/108/524 83/102/525
f 83/102/526 99/299/527 100/300/528
f 101/301/529 85/109/530 84/108/531
f 84/108/532 100/300/533 101/301/534
f 86/113/535 70/92/536 85/109/537
f 85/109/538 101/301/539 86/113/540
f 103/126/541 87/114/542 86/113/543
f 86/113/544 102/115/545 103/126/546
f 104/295/547 88/290/548 87/289/549
f 87/289/550 103/294/551 104/295/552
f 105/296/553 89/291/554 88/290/555
f 88/290/556 104/295/557 105/296/558
f 106/117/559 90/292/560 89/291/561
f 89/291/562 105/296/563 106/117/564
f 107/130/565 91/293/566 90/292/567
f 90/292/568 106/117/569 107/130/570
f 108/309/571 92/304/572 91/303/573
f 91/303/574 107/308/575 108/309/576
f 109/310/577 93/305/578 92/304/579
f 92/304/580 108/309/581 109/310/582
f 110/120/583 94/306/584 93/305/585
f 93/305/586 109/310/587 110/120/588
f 111/134/589 95/307/590 94/306/591
f 94/306/592 110/120/593 111/134/594
f 112/282/595 96/277/596 95/276/597
f 95/276/598 111/281/599 112/282/600
f 113/283/601 97/278/602 96/277/603
f 96/277/604 112/282/605 113/283/606
f 114/284/607 98/279/608 97/278/609
f 97/278/610 113/283/611 114/284/612
f 115/285/613 99/280/614 98/279/615
f 98/279/616 114/284/617 115/285/618
f 116/140/619 100/300/620 99/299/621
f 99/299/622 115/138/623 116/140/624
f 117/302/625 101/301/626 100/300/627
f 100/300/628 116/140/629 117/302/630
f 102/115/631 86/113/632 101/301/633
f 101/301/634 117/302/635 102/115/636
f 119/116/637 103/126/638 102/115/639
f 102/115/640 118/94/641 119/116/642
f 120/127/643 104/128/644 103/126/645
f 103/126/646 119/116/647 120/127/648
f 121/298/649 105/296/650 104/295/651
f 104/295/652 120/297/653 121/298/654
f 122/118/655 106/117/656 105/296/657
f 105/296/658 121/298/659 122/118/660
f 123/119/661 107/130/662 106/117/663
f 106/117/664 122/118/665 123/119/666
f 124/131/667 108/132/668 107/130/669
f 107/130/670 123/119/671 124/131/672
f 125/312/673 109/310/674 108/309/675
f 108/309/676 124/311/677 125/312/678
f 126/121/679 110/120/680 109/310/681
f 109/310/682 125/312/683 126/121/684
f 127/122/685 111/134/686 110/120/687
f 110/120/688 126/121/689 127/122/690
f 128/135/691 112/136/692 111/134/693
f 111/134/694 127/122/695 128/135/696
f 129/287/697 113/283/698 112/282/699
f 112/282/700 128/286/701 129/287/702
f 130/288/703 114/284/704 113/283/705
f 113/283/706 129/287/707 130/288/708
f 131/125/709 115/138/710 114/123/711
f 114/123/712 130/124/713 131/125/714
f 132/139/715 116/140/716 115/138/717
f 115/138/718 131/125/719 132/139/720
f 133/164/721 117/302/722 116/140/723
f 116/140/724 132/139/725 133/164/726
f 118/94/727 102/115/728 117/302/729
f 117/302/730 133/164/731 118/94/732
f 135/100/733 119/103/734 118/94/735
f 118/94/736 134/97/737 135/100/738
f 136/104/739 120/129/740 119/103/741
f 119/103/742 135/100/743 136/104/744
f 137/133/745 121/137/746 120/129/747
f 120/129/748 136/104/749 137/133/750
f 138/141/751 122/142/752 121/137/753
f 121/137/754 137/133/755 138/141/756
f 139/143/757 123/144/758 122/142/759
f 122/142/760 138/141/761 139/143/762
f 140/145/763 124/146/764 123/144/765
f 123/144/766 139/143/767 140/145/768
f 141/147/769 125/148/770 124/146/771
f 124/146/772 140/145/773 141/147/774
f 142/149/775 126/150/776 125/148/777
f 125/148/778 141/147/779 142/149/780
f 143/151/781 127/152/782 126/150/783
f 126/150/784 142/149/785 143/151/786
f 144/153/787 128/154/788 127/152/789
f 127/152/790 143/151/791 144/153/792
f 145/155/793 129/156/794 128/154/795
f 128/154/796 144/153/797 145/155/798
f 146/157/799 130/158/800 129/156/801
f 129/156/802 145/155/803 146/157/804
f 147/159/805 131/160/806 130/158/807
f 130/158/808 146/157/809 147/159/810
f 148/161/811 132/162/812 131/160/813
f 131/160/814 147/159/815 148/161/816
f 149/163/817 133/164/818 132/162/819
f 132/162/820 148/161/821 149/163/822
f 134/97/823 118/94/824 133/164/825
f 133/164/826 149/163/827 134/97/828
f 150/165/829 135/100/830 134/97/831
f 150/165/832 136/104/833 135/100/834
f 150/165/835 137/133/836 136/104/837
f 150/165/838 138/141/839 137/133/840
f 150/165/841 139/143/842 138/141/843
f 150/165/844 140/145/845 139/143/846
f 150/165/847 141/147/848 140/145/849
f 150/165/850 142/149/851 141/147/852
f 150/165/853 143/151/854 142/149/855
f 150/165/856 144/153/857 143/151/858
f 150/165/859 145/155/860 144/153/861
f 150/165/862 146/157/863 145/155/864
f 150/165/865 147/159/866 146/157/867
f 150/165/868 148/161/869 147/159/870
f 150/165/871 149/163/872 148/161/873
f 150/165/874 134/97/875 149/163/876
f 167/170/877 166/203/878 165/204/879
f 165/204/880 164/205/881 163/206/882
f 163/206/883 162/207/884 161/208/885
f 165/204/886 163/206/887 161/208/888
f 161/208/889 160/209/890 159/210/891
f 159/210/892 158/211/893 157/212/894
f 161/208/895 159/210/896 157/212/897
f 157/212/898 156/213/899 155/214/900
f 155/214/901 154/215/902 153/272/903
f 157/212/904 155/214/905 153/272/906
f 161/208/907 157/212/908 153/272/909
f 165/204/910 161/208/911 153/272/912
f 153/272/913 152/273/914 151/166/915
f 165/204/916 153/272/917 151/166/918
f 167/170/919 165/204/920 151/166/921
f 168/169/922 167/170/923 151/166/924
f 151/166/925 152/167/926 170/168/927
f 170/168/928 169/183/929 151/166/930
f 152/167/931 153/171/932 171/189/933
f 171/189/934 170/168/935 152/167/936
f 153/171/937 154/172/938 172/188/939
f 172/188/940 171/189/941 153/171/942
f 154/172/943 155/201/944 173/202/945
f 173/202/946 172/188/947 154/172/948
f 155/201/949 156/268/950 174/269/951
f 174/269/952 173/202/953 155/201/954
f 156/268/955 157/270/956 175/271/957
f 175/271/958 174/269/959 156/268/960
f 157/270/961 158/173/962 176/176/963
f 176/176/964 175/271/965 157/270/966
f 158/173/967 159/174/968 177/175/969
f 177/175/970 176/176/971 158/173/972
f 159/174/973 160/190/974 178/191/975
f 178/191/976 177/175/977 159/174/978
f 160/190/979 161/192/980 179/193/981
f 179/193/982 178/191/983 160/190/984
f 161/192/985 162/274/986 180/275/987
f 180/275/988 179/193/989 161/192/990
f 162/177/991 163/178/992 181/179/993
f 181/179/994 180/180/995 162/177/996
f 163/178/997 164/181/998 182/182/999
f 182/182/1000 181/179/1001 163/178/1002
f 164/181/1003 165/194/1004 183/195/1005
f 183/195/1006 182/182/1007 164/181/1008
f 165/194/1009 166/196/1010 184/197/1011
f 184/197/1012 183/195/1013 165/194/1014
f 166/196/1015 167/198/1016 185/199/1017
f 185/199/1018 184/197/1019 166/196/1020
f 167/198/1021 168/169/1022 186/184/1023
f 186/184/1024 185/199/1025 167/198/1026
f 168/169/1027 151/166/1028 169/183/1029
f 169/183/1030 186/184/1031 168/169/1032
f 169/183/1033 170/185/1034 171/186/1035
f 171/186/1036 172/187/1037 173/200/1038
f 173/200/1039 174/216/1040 175/217/1041
f 171/186/1042 173/200/1043 175/217/1044
f 175/217/1045 176/218/1046 177/219/1047
f 177/219/1048 178/220/1049 179/221/1050
f 175/217/1051 177/219/1052 179/221/1053
f 179/221/1054 180/222/1055 181/223/1056
f 181/223/1057 182/224/1058 183/225/1059
f 179/221/1060 181/223/1061 183/225/1062
f 175/217/1063 179/221/1064 183/225/1065
f 171/186/1066 175/217/1067 183/225/1068
f 183/225/1069 184/226/1070 185/227/1071
f 171/186/1072 183/225/1073 185/227/1074
f 169/183/1075 171/186/1076 185/227/1077
f 186/184/1078 169/183/1079 185/227/1080
f 187/228/1081 189/229/1082 190/230/1083
f 190/230/1084 188/231/1085 187/228/1086
f 191/232/1087 192/233/1088 194/234/1089
f 194/234/1090 193/235/1091 191/232/1092
f 187/228/1093 188/231/1094 192/233/1095
f 192/233/1096 191/232/1097 187/228/1098
f 188/231/1099 190/236/1100 194/237/1101
f 194/237/1102 192/233/1103 188/231/1104
f 190/238/1105 189/239/1106 193/240/1107
f 193/240/1108 194/241/1109 190/238/1110
f 189/239/1111 187/228/1112 191/232/1113
f 191/232/1114 193/240/1115 189/239/1116
f 195/242/1117 197/243/1118 198/244/1119
f 198/244/1120 196/245/1121 195/242/1122
f 199/246/1123 200/247/1124 202/248/1125
f 202/248/1126 201/249/1127 199/246/1128
f 195/242/1129 196/245/1130 200/247/1131
f 200/247/1132 199/246/1133 195/242/1134
f 196/245/1135 198/250/1136 202/251/1137
f 202/251/1138 200/247/1139 196/245/1140
f 198/244/1141 197/243/1142 201/252/1143
f 201/252/1144 202/253/1145 198/244/1146
f 197/254/1147 195/242/1148 199/246/1149
f 199/246/1150 201/255/1151 197/254/1152
#384 polygons

